<?xml version="1.0" standalone="no"?>
<!DOCTYPE svg PUBLIC "-//W3C//DTD SVG 1.1//EN" "http://www.w3.org/Graphics/SVG/1.1/DTD/svg11.dtd" >
<svg xmlns="http://www.w3.org/2000/svg">
<metadata>
Created by FontForge 20120731 at Mon Apr 25 15:45:28 2016
 By admin
</metadata>
<defs>
<font id="iconfont" horiz-adv-x="1024" >
  <font-face 
    font-family="iconfont"
    font-weight="500"
    font-stretch="normal"
    units-per-em="1024"
    panose-1="2 0 6 3 0 0 0 0 0 0"
    ascent="896"
    descent="-128"
    x-height="792"
    bbox="-0.227273 -224 1029 896.75"
    underline-thickness="50"
    underline-position="-100"
    unicode-range="U+0078-E65B"
  />
<missing-glyph horiz-adv-x="374" 
d="M34 0v682h272v-682h-272zM68 34h204v614h-204v-614z" />
    <glyph glyph-name=".notdef" horiz-adv-x="374" 
d="M34 0v682h272v-682h-272zM68 34h204v614h-204v-614z" />
    <glyph glyph-name=".null" horiz-adv-x="0" 
 />
    <glyph glyph-name="nonmarkingreturn" horiz-adv-x="341" 
 />
    <glyph glyph-name="x" unicode="x" horiz-adv-x="1001" 
d="M281 543q-27 -1 -53 -1h-83q-18 0 -36.5 -6t-32.5 -18.5t-23 -32t-9 -45.5v-76h912v41q0 16 -0.5 30t-0.5 18q0 13 -5 29t-17 29.5t-31.5 22.5t-49.5 9h-133v-97h-438v97zM955 310v-52q0 -23 0.5 -52t0.5 -58t-10.5 -47.5t-26 -30t-33 -16t-31.5 -4.5q-14 -1 -29.5 -0.5
t-29.5 0.5h-32l-45 128h-439l-44 -128h-29h-34q-20 0 -45 1q-25 0 -41 9.5t-25.5 23t-13.5 29.5t-4 30v167h911zM163 247q-12 0 -21 -8.5t-9 -21.5t9 -21.5t21 -8.5q13 0 22 8.5t9 21.5t-9 21.5t-22 8.5zM316 123q-8 -26 -14 -48q-5 -19 -10.5 -37t-7.5 -25t-3 -15t1 -14.5
t9.5 -10.5t21.5 -4h37h67h81h80h64h36q23 0 34 12t2 38q-5 13 -9.5 30.5t-9.5 34.5q-5 19 -11 39h-368zM336 498v228q0 11 2.5 23t10 21.5t20.5 15.5t34 6h188q31 0 51.5 -14.5t20.5 -52.5v-227h-327z" />
    <glyph glyph-name="uniE600" unicode="&#xe600;" 
d="M825 203l146 333q5 13 -2.5 24.5t-21.5 11.5h-619l-23 104q-1 9 -8 14.5t-17 5.5h-203q-11 0 -18.5 -7.5t-7.5 -18t7.5 -18t18.5 -7.5h183l116 -540q-31 -9 -51.5 -35.5t-20.5 -59.5q0 -42 29.5 -71t70.5 -29t70 29t29 71q0 25 -13 48h198q-13 -23 -13 -48q0 -42 29 -71
t70.5 -29t70.5 29t29 70.5t-29 70.5t-70 29h-4h-3h-341v1v2l-16 76h391q17 0 23 15zM403.5 -52q-25.5 0 -43 18t-17.5 43.5t17.5 43.5t43 18t43.5 -18t18 -43.5t-18 -43.5t-43.5 -18zM836 9.5q0 -25.5 -18 -43.5t-43.5 -18t-43.5 18t-18 43.5t18 43.5t43.5 18t43.5 -18
t18 -43.5zM405 239l-65 282h568l-123 -282h-380z" />
    <glyph glyph-name="uniE601" unicode="&#xe601;" 
d="M410 95l-76 -48l17 84l222 400l-63 38l-234 -429v-186l179 78l245 423l-67 40zM558 647l-30 -54l180 -107l29 53zM506.5 751q-91.5 0 -175 -36t-144 -96t-96 -143.5t-35.5 -175t35.5 -175t96 -144t144 -96t175 -35.5t175 35.5t143.5 96t96 144t36 175t-36 175t-96 143.5
t-143.5 96t-175 36zM506.5 -118q-112.5 0 -208 55.5t-151.5 151t-56 208.5t56 208.5t151.5 151t208 55.5t208 -55.5t151 -151t55.5 -208.5t-55.5 -208.5t-151 -151t-208 -55.5z" />
    <glyph glyph-name="uniE602" unicode="&#xe602;" 
d="M185 -63h654h-654zM916 -5q-15 106 -81 190t-163 126q58 39 92 101t34 135q0 118 -84 201t-202 83t-202 -83t-84 -201q0 -73 34 -135t92 -101q-97 -42 -163 -126t-81 -190q-4 -8 -4 -18q0 -17 12 -28.5t29 -11.5t28.5 11.5t11.5 28.5v-40q0 88 44 163t119 118.5t164 43.5
t164 -43.5t119 -118.5t44 -163v40q0 -17 11.5 -28.5t28.5 -11.5t29 11.5t12 28.5q0 10 -4 18zM512 343q-85 0 -144.5 59.5t-59.5 144t59.5 144t144.5 59.5t144.5 -59.5t59.5 -144t-59.5 -144t-144.5 -59.5z" />
    <glyph glyph-name="uniE603" unicode="&#xe603;" 
d="M176 635l5 1h101q7 0 7 -6v-50h-57v-672h560v672h-58v55l4 1h107l3 -1v-783h-672v783zM519 748q26 -7 27 -8q30 -13 43 -44q2 -4 7 -4h38h39q6 0 6 -6v-157l-1 -5h-333v6v155q0 7 7 7h38h38q5 0 7 4q19 43 66 51l3 1h15zM540 636v8v24q-2 10 -9 16.5t-17 7.5t-18 -5
t-11 -15q-1 -4 -1 -11v-25h-83v-56h222v56h-83zM679 187v-54h-335v54h335zM679 299v-55h-5h-324q-6 0 -6 6v44q0 6 5 6h325zM679 76v-55h-335v4v46q0 5 5 5h326h4zM483 412v-55h-139v55h139z" />
    <glyph glyph-name="uniE604" unicode="&#xe604;" 
d="M244 248q-84 83 -84 202t83.5 202.5t202.5 83.5t202.5 -83.5t83.5 -202.5t-83.5 -202.5t-202.5 -83.5t-202 84zM922 15l-215 214q57 67 74.5 151t-6.5 167t-86 146q-50 49 -113 75t-130 26t-130.5 -26t-112.5 -75q-66 -66 -89.5 -154.5t0 -177t89.5 -154.5
q49 -49 112.5 -75t130.5 -26q123 0 221 83l214 -215z" />
    <glyph glyph-name="uniE605" unicode="&#xe605;" 
d="M354 812h-354v-354h354v354zM276 536h-197v197h197v-197zM236 576h-118v118h118v-118zM512 812v-79h-79v79h79zM512 576v-79h-79v157h79v79h79v-157h-79zM79 379v-79h-79v79h79zM512 -212v79h79v-79h-79zM945 300h79v-79h-236v79h78v79h79v-79zM512 182v-79h-79v79h79z
M945 -212v79h79v-79h-79zM945 103h79v-79v-78h-79v-79h-39v-79h-79v79h39v79h-39v-79h-79v-79h-78v158h78v78h79v79h-79v-79h-78v-78h-158v-79h-79v157h79v79h158v79h275v-79zM788 379v-79h-79v-79h-118v79h-79v-79h-197v79h-79v-79h-157v79h79v79h354v118h79v-118h197z
M0 -212h354v354h-354v-354zM79 64h197v-197h-197v197zM118 24h118v-118h-118v118zM670 812v-354h354v354h-354zM945 536h-197v197h197v-197zM906 576h-118v118h118v-118z" />
    <glyph glyph-name="uniE606" unicode="&#xe606;" 
d="M531 133v-50q0 -7 -5.5 -12.5t-13.5 -5.5t-13.5 5.5t-5.5 12.5v50q-20 6 -32.5 23t-12.5 39q0 27 18.5 46t45.5 19t45.5 -19t18.5 -46q0 -22 -12.5 -39t-32.5 -23zM789 -142h-554q-30 0 -51.5 23t-21.5 56v408h700v-408q0 -33 -21.5 -56t-51.5 -23zM832 313h-640v-354
q0 -31 18 -50.5t47 -19.5h510q29 0 47 19.5t18 50.5v354zM756 478q0 105 -69 173t-175 68t-175 -68t-69 -173v-126h-33v129q0 113 81 192t196 79t196 -79t81 -192v-129h-33v126z" />
    <glyph glyph-name="uniE607" unicode="&#xe607;" 
d="M812 -129h-54l-132 131q122 37 199.5 140t77.5 234q0 106 -52 195.5t-142 142t-196 52.5t-196 -52.5t-142 -142t-52 -195.5q0 -135 82.5 -240t209.5 -138l-122 -122q-3 -3 -4 -7l-66 -1q-9 0 -15 -6t-6 -14.5t6 -14.5t15 -6l589 3q9 0 15 6t6 14.5t-6 14.5t-15 6z
M266.5 129q-48.5 48 -75.5 111q-27 65 -27 136t27 136q27 62 75.5 110.5t110.5 74.5q65 28 136 28t136 -28q63 -26 111 -74.5t75 -110.5q27 -65 27 -136t-27 -136q-27 -63 -75 -111t-111 -75q-65 -27 -136 -27t-136 27q-62 27 -110.5 75zM344 -131l120 120q24 -3 49 -3
q33 0 66 5l121 -121zM738 345q0 93 -66 159t-159 66t-159 -66t-66 -159t66 -159t159 -66t159 66t66 159zM329 345q0 76 54 130t130 54t130 -54t54 -130t-54 -130t-130 -54t-130 54t-54 130zM515 647zM475 647.5q0 16.5 11.5 28t28 11.5t28.5 -11.5t12 -28t-12 -28.5
t-28.5 -12t-28 12t-11.5 28.5z" />
    <glyph glyph-name="uniE608" unicode="&#xe608;" 
d="M801 725h-578l-159 -341v-341h896v341zM891 112h-758v243h758v-243zM545 284h100v-101h-100v101zM719 284h101v-101h-101v101z" />
    <glyph glyph-name="uniE609" unicode="&#xe609;" 
d="M910 818q48 0 64 -21t16 -59v-448q0 -45 -19 -72t-69 -27h-758q-24 0 -40 8.5t-26 22.5t-14.5 31t-4.5 37v448q0 37 18 58.5t61 21.5h772zM565 223q13 0 20 6.5t7 14.5q0 9 -5 15t-20 6h-91q-11 0 -16.5 -6t-5.5 -15q0 -8 5.5 -14.5t16.5 -6.5h89zM910 737l-772 1v-443
h772v442zM537 552q0 -5 -4 -8.5t-9 -3.5t-8 3.5t-3 8.5v55q0 5 3 9.5t8 4.5t9 -4t4 -9v-56zM630 523q-2 -4 -8 -6.5t-10 0.5q-9 7 -3 17l32 45q3 4 8.5 5.5t9.5 -0.5q5 -3 4.5 -9.5t-3.5 -9.5zM383 563q-2 4 -2.5 10t4.5 9q4 2 9 0t7 -5l31 -43q2 -4 1.5 -9t-4.5 -8
q-9 -6 -16 3zM375 451q5 0 8.5 -4t3.5 -9t-3.5 -8t-8.5 -3h-57q-4 0 -7.5 3t-3.5 8t3.5 9t7.5 4h57zM723 451q11 0 11 -13q0 -5 -3.5 -8t-7.5 -3h-55q-11 0 -11 11q0 13 11 13h55z" />
    <glyph glyph-name="uniE60A" unicode="&#xe60a;" 
d="M925 599q0 1 0.5 3t0.5 3v128q0 53 -37.5 90.5t-90.5 37.5h-64q-52 0 -89.5 -37.5t-37.5 -90.5v-128q0 -1 0.5 -3t0.5 -3q-29 -10 -47 -34.5t-18 -55.5v-128q0 -40 28 -68t68 -28h95v-352q0 -13 9.5 -22.5t23 -9.5t22.5 9.5t9 22.5v352h96q40 0 68 28t28 68v128
q0 31 -18 55.5t-47 34.5zM671 733q0 26 18.5 45t44.5 19h64q27 0 45.5 -19t18.5 -45v-128h-64v96q0 13 -9 22.5t-22.5 9.5t-23 -9.5t-9.5 -22.5v-96h-63v128zM926 381q0 -13 -9 -22.5t-23 -9.5h-255q-14 0 -23 9.5t-9 22.5v128q0 13 9 22.5t23 9.5h255q14 0 23 -9.5t9 -22.5
v-128zM412 688q3 6 3 13v94q0 27 -19.5 46.5t-46.5 19.5h-188q-27 0 -46.5 -19.5t-19.5 -46.5v-94q0 -7 2 -13q-30 -14 -48 -42.5t-18 -62.5v-244q0 -49 34.5 -83.5t83.5 -34.5h74v-288q0 -13 9.5 -22.5t22.5 -9.5t22.5 9.5t9.5 22.5v288h74q49 0 83.5 34.5t34.5 83.5v244
q0 34 -18.5 62.5t-48.5 42.5zM161 797l190 -2v-94h-192zM415 339q0 -23 -16 -38.5t-38 -15.5h-212q-23 0 -38.5 15.5t-15.5 38.5v244q0 22 15.5 38t38.5 16h212q22 0 38 -16t16 -38v-244z" />
    <glyph glyph-name="uniE60B" unicode="&#xe60b;" 
d="M719 -145h-416q-46 0 -78.5 32.5t-32.5 79.5v671q0 46 32.5 79t78.5 33h416q46 0 78.5 -33t32.5 -79v-671q0 -47 -32.5 -79.5t-78.5 -32.5zM775 638q0 23 -16.5 39.5t-39.5 16.5h-416q-23 0 -39 -16.5t-16 -39.5v-28h527v28zM775 554h-527v-447h527v447zM775 51h-527v-84
q0 -24 16 -40t39 -16h416q23 0 39.5 16t16.5 40v84zM511 -61q-17 0 -29.5 12t-12.5 29.5t12.5 30t29.5 12.5t29.5 -12.5t12.5 -30t-12.5 -29.5t-29.5 -12z" />
    <glyph glyph-name="uniE60C" unicode="&#xe60c;" 
d="M337 266zM577 32zM337 266q-5 1 -16.5 13t-16.5 19q-20 29 -31 56l-14 40q-1 2 -3.5 12.5t-5.5 17t-6 9.5q-9 10 -22.5 8.5t-20.5 -12.5q-5 -9 -12 -25t-9 -20t-5 -12t-4 -11q-19 -41 -30 -101q-6 -32 -6 -48q1 -39 1 -43q3 -34 13 -75q12 -47 35 -83q2 -3 4 -7
q10 -17 23 -32q15 -17 25 -28q12 -12 29 -25q14 -11 39 -26q20 -12 52 -24q11 -4 16 -5q1 -1 3.5 -1.5t4.5 -1.5q4 -1 9 -2l17 -4q1 0 2.5 -0.5t2.5 -0.5h-1q-1 1 -3 2l-3 2l-3 2q-1 1 -2 1.5l-1 0.5l-2 2q-16 12 -22 19l-3 5q-2 2 -7 9q-3 3 -5 6l-1 1q0 1 -0.5 1.5t-1 1.5
t-1.5 2l-3 7l-4 7q-1 1 -2 3.5t-1 3.5q-1 1 -3 7q-5 13 -7 25q-3 12 -3 18q0 2 -0.5 5.5t-0.5 4.5v21q0 2 0.5 5.5t0.5 4.5q0 7 2 19q2 10 4 16q1 1 1 2.5t1 1.5q1 3 3 8.5t3 6.5q2 5 7 13.5t6 10.5l5 11v2l1 1q6 17 8 30v2v2q1 17 1 19q5 9 15 6q8 -2 21 -15l3 -4
q1 -1 1 -2q15 -20 20 -54v-2l1 -2l2 2q7 13 10 21q0 1 1 2v1l6 17q5 17 8 45q0 5 1 17v9q0 19 -2 33q-2 13 -1 16q2 6 9 9q5 1 19 -5q8 -3 20 -11q17 -12 28 -25l2 -2l1 -1l2 -2l5 -7q10 -12 20 -34v-2l1 -1l4 -12l6 -18q3 -12 5 -31q2 -24 0 -51q-1 -4 -5 -27v-2v-2
q6 2 15 16q10 14 15 26l7 20q6 18 7 19q5 4 11.5 3.5t9.5 -5.5q2 -4 5.5 -12t4.5 -10t2.5 -5.5t2.5 -5.5q9 -20 14 -49q3 -16 3 -23q0 -17 -1 -21q-1 -17 -6 -36q-5 -23 -17 -40l-2 -4q-4 -7 -11 -15t-12 -13.5t-10 -8.5q25 8 45 19q3 1 7 3l14 8q3 2 7 4l7 4q0 1 6 5
q2 1 6 4q2 1 3 2q33 25 45 41l8 9q5 4 15 18q6 9 9 13q3 5 4 6q2 4 4 7q3 5 8.5 15t7 13t3.5 8.5t3 6.5q2 5 6 16q9 25 15 51q4 25 5 37q0 3 1 10t1 11v13v16v14q0 4 -0.5 11t-0.5 10q0 15 -5 39q-5 22 -9 34q0 3 -2 9t-7 17t-6 13q-4 10 -15 29t-12 21l-10 22q-3 6 -3 7
q-12 34 -16 61q-1 7 -1 10q0 5 1 13t0.5 14t-4.5 11q-3 7 -11.5 11.5t-17.5 1.5q-16 -4 -43 -31l-8 -9q0 -1 -1 -2t-2 -1q-30 -42 -40 -112q-2 -8 -2 -10l-3 6q-15 25 -21 43q-1 1 -2 3t-1 4l-11 34q-11 36 -17 94q-1 10 -2 34l-1 19q0 39 5 69q3 26 2 33q-4 13 -19 18
q-6 1 -8 1.5t-8.5 -1.5t-8.5 -3t-8 -3.5t-8 -3.5q-17 -8 -41 -24q-34 -23 -58 -51l-2 -3q-2 -1 -2.5 -2t-1.5 -2l-3 -3l-12 -15q-20 -25 -40 -70q0 -1 -1 -3t-2 -3q-3 -8 -8 -24l-12 -39q-6 -23 -10 -63q-5 -49 0 -106q1 -9 9 -56l1 -3q0 -3 1 -5z" />
    <glyph glyph-name="uniE60D" unicode="&#xe60d;" 
d="M510.5 828q-90.5 0 -172.5 -35t-141 -94.5t-94.5 -141.5t-35.5 -172.5t35.5 -172.5t94.5 -141t141 -94.5t172.5 -35.5t172.5 35.5t141 94.5t94.5 141t35.5 172.5t-35.5 172.5t-94.5 141.5t-141 94.5t-172.5 35zM510.5 -14q-108.5 0 -200 53.5t-145 145t-53.5 200
t53.5 200t145 145t200 53.5t200 -53.5t145 -145t53.5 -200t-53.5 -200t-145 -145t-200 -53.5zM509 657q-105 0 -181.5 -74.5t-82.5 -178.5q11 10 33 17.5t40 7.5q28 0 54 -25q13 13 24 19t27 6q8 0 14.5 -2.5t9.5 -5t9.5 -8.5t9.5 -9q3 3 8.5 7.5t8 7t7.5 5.5t10 4t11 1
q16 0 25 -5.5t24 -19.5l6 6l6 6q1 1 4.5 4t6 4t6 2.5t7.5 2t9 0.5q7 0 12 -1t10 -4.5t8 -5.5t9 -7t8 -7q3 3 10 9t10.5 8.5t10 5.5t14.5 3q49 0 79 -26q-7 104 -84 178.5t-183 74.5zM652 450q-19 16 -44 16q-28 0 -48 -19q-21 19 -49 19q-25 0 -45 -16q-19 16 -44 16
q-28 0 -49 -19q-17 13 -46 16t-38 -6q16 71 75.5 115.5t145.5 44.5q82 0 145 -49t75 -111q-8 8 -34 7t-44 -14zM509 457q-7 0 -12 -6t-5 -14v-247q0 -11 -8.5 -19.5t-20.5 -8.5t-20 8t-9 20q0 8 -5 13t-12.5 5t-12.5 -5t-5 -13q0 -26 18.5 -45t45 -19t45.5 19t19 46v246
q0 8 -5 14t-13 6z" />
    <glyph glyph-name="uniE60E" unicode="&#xe60e;" 
d="M512 747q-91 0 -173.5 -35t-142.5 -95t-95.5 -143t-35.5 -174t35.5 -173.5t95.5 -142.5t142.5 -95.5t173.5 -35.5t173.5 35.5t142.5 95.5t95.5 142.5t35.5 173.5t-35.5 174t-95.5 143t-142.5 95t-173.5 35zM512 -87q-105 0 -194.5 51.5t-141.5 141t-52 195t52 194.5
t141.5 141t194.5 52t194.5 -52t141 -141t51.5 -194.5t-51.5 -195t-141 -141t-194.5 -51.5zM328 212zM487 582zM729 475l-42 43l56 55q-28 16 -61 11t-57 -29q-22 -22 -27.5 -52t6.5 -57l-248 -248q-25 10 -53 4.5t-48 -25.5q-22 -23 -26.5 -53.5t9.5 -57.5l49 49l40 -40
l-49 -49q26 -14 57 -9.5t53 26.5q21 20 26.5 48t-4.5 53l248 248q27 -12 57 -6t52 27q24 24 28.5 57t-10.5 61zM729 475z" />
    <glyph glyph-name="uniE60F" unicode="&#xe60f;" 
d="M304 400h62l20 51h243l-247 -448h96l5 21l235 461l2 49h-397zM512 703q109 0 202 -54t147 -147t54 -202t-54 -202t-147 -147t-202 -54t-202 54t-147 147t-54 202t54 202t147 147t202 54zM512 748q-122 0 -225 -60t-163 -163t-60 -225t60 -225t163 -163t225 -60t225 60
t163 163t60 225t-60 225t-163 163t-225 60z" />
    <glyph glyph-name="uniE610" unicode="&#xe610;" 
d="M512 837q-92 0 -176 -36t-144.5 -96.5t-96.5 -144.5t-36 -176t36 -176t96.5 -144.5t144.5 -96.5t176 -36t176 36t144.5 96.5t96.5 144.5t36 176t-36 176t-96.5 144.5t-144.5 96.5t-176 36zM512 -31q-113 0 -208.5 55.5t-151 151t-55.5 208.5t55.5 208.5t151 151
t208.5 55.5t208.5 -55.5t151 -151t55.5 -208.5t-55.5 -208.5t-151 -151t-208.5 -55.5zM661 629q-3 1 -14.5 7t-16 8t-15 6t-16 4t-15 -1.5t-15.5 -7.5t-13 -16t-12 -25q-10 -27 -12 -45.5t5.5 -30t15 -17t24.5 -13.5q4 -2 7 -4q32 -16 -28 -137q-26 -53 -50 -83.5t-42 -21.5
q-2 1 -6 4q-17 8 -26 11t-22.5 2.5t-27 -13.5t-28.5 -37q-9 -14 -12.5 -25.5t-4.5 -20t3 -16.5t7.5 -13t12.5 -11t14 -9l16 -8q11 -5 14 -7q36 -18 106 39.5t125 168.5q37 75 50.5 145t5.5 112.5t-30 54.5z" />
    <glyph glyph-name="uniE611" unicode="&#xe611;" 
d="M728 662l22 30l9 -44l1 -7l1 -6q3 -17 9 -59q4 -31 5 -60q1 -30 0 -60q-1 -31 -6 -62q-5 -32 -13 -61q-8 -33 -20 -60q-13 -31 -30 -56q-18 -27 -43 -51q-24 -23 -56 -46q-24 -18 -64 -42q-13 -9 -17 -10q-4 -2 -12 -4q-1 0 -5 -1t-6 -1q-1 0 -4 2q-1 0 -2 1l-2 1t-3 1
q-1 1 -4.5 3t-5.5 3q-11 6 -20 11q-21 12 -38 23q-19 13 -35 26t-30 28.5t-25 32.5q-11 16 -21 35q-9 18 -17 37q-7 18 -13 37l-10 38q-5 19 -9 38l-6 38q-3 18 -5 36t-3 35l-2 34v30q1 14 1 26q1 12 1 22q1 6 2 16q0 3 1 13q1 7 1 10q0 2 1 4l3 25l147 -47l108 85l13 -11
q86 -74 114 -90q26 11 75 44zM295 612q-2 -26 -3 -53.5t2 -71.5t10 -84.5t22.5 -87.5t38 -85t59.5 -71.5t83 -52.5l6 3q63 30 108 75.5t68.5 94t34 106.5t9.5 110t-10 108q-66 -42 -85 -42q-21 0 -126 90l-98 -78zM362 533h93l45 57l74 -57l-212 -201q-2 7 -5 19t-8 42.5
t-7 56t2.5 50t17.5 33.5zM645 535l-260 -260l39 -38l255 255zM664 433l-224 -225l67 -67q68 55 117 125q67 97 40 167zM966 621l-26 -45q45 -98 40.5 -212.5t-62.5 -214.5q-47 -82 -123 -138.5t-162 -79.5t-179.5 -12t-176 58.5t-139 123.5t-79.5 162t-12 179.5t58.5 176
t123.5 139t162 79.5t179.5 12t176.5 -59q71 -41 124 -104l23 39q-55 61 -126 102q-90 52 -192.5 64.5t-196 -12.5t-176 -87t-134.5 -152t-64.5 -192.5t12.5 -196t87 -176t152 -134.5t192.5 -64.5t196 12.5t176 87t134.5 152q67 116 68.5 249t-57.5 244z" />
    <glyph glyph-name="uniE612" unicode="&#xe612;" 
d="M776 682h-186q-7 0 -13 -5.5t-6 -12.5v-705q0 -8 6 -13t13 -5h186q7 0 12.5 5t5.5 13v705q0 7 -5.5 12.5t-12.5 5.5zM759 -25h-152v673h152v-673zM672 310q0 5 -3.5 8.5t-8.5 3.5h-40v-24h40q5 0 8.5 3.5t3.5 8.5zM705 489q0 5 -3.5 8.5t-8.5 3.5h-73v-24h73q5 0 8.5 3.5
t3.5 8.5zM706 220.5q0 4.5 -3.5 8t-8.5 3.5h-74v-23h74q5 0 8.5 3.5t3.5 8zM672 579q0 5 -3.5 8.5t-8.5 3.5h-40v-24h40q5 0 8.5 3.5t3.5 8.5zM672 400q0 5 -3.5 8.5t-8.5 3.5h-40v-24h40q5 0 8.5 3.5t3.5 8.5zM673 131q0 5 -3.5 8.5t-8.5 3.5h-41v-24h41q5 0 8.5 3.5
t3.5 8.5zM673 41q0 5 -3.5 8.5t-8.5 3.5h-41v-24h41q5 0 8.5 3.5t3.5 8.5zM423 681h-143q-8 0 -13.5 -5.5t-5.5 -12.5v-569q0 -4 2 -8q0 -1 1 -2l77 -135q4 -8 14 -8q9 0 14 8l71 135q0 1 1 2q1 4 1 8v569q0 7 -5.5 12.5t-13.5 5.5zM297 515h109v-405h-109v405zM406 646v-99
h-109v99h109zM354 -10l-49 85h94z" />
    <glyph glyph-name="uniE613" unicode="&#xe613;" 
d="M366 1q-29 0 -50 -21t-21 -50t21 -50t50 -21t50 21t21 50t-21 50t-50 21zM366 -90q-8 0 -14 6t-6 14t6 13.5t14 5.5t14 -5.5t6 -13.5t-6 -14t-14 -6zM809 1q-29 0 -50 -21t-21 -50t21 -50t50 -21t50 21t21 50t-21 50t-50 21zM809 -90q-8 0 -14 6t-6 14t6 13.5t14 5.5
t13.5 -5.5t5.5 -13.5t-5.5 -14t-13.5 -6zM444 222q-11 -1 -17.5 -9.5t-5.5 -18.5t8.5 -16.5t17.5 -6.5h2l439 44h1q1 0 1 1h1h2q1 0 2 1h2q2 1 3 2l2 2q1 0 2 1l1 1v1h1l1 1q0 1 1 2t1 2q1 1 1 2q1 2 1 4v0v1l57 252q1 6 -1 12q1 3 1 7q0 10 -7.5 17.5t-17.5 7.5h-748
l-52 160q-6 18 -25 17h-1h-62q-11 0 -18.5 -7.5t-7.5 -18t7.5 -18t18.5 -7.5h45l198 -603q6 -18 25 -18q3 0 6 1h567q11 0 18.5 7.5t7.5 18t-7.5 18t-18.5 7.5h-555l-129 392h701l-48 -217z" />
    <glyph glyph-name="uniE614" unicode="&#xe614;" horiz-adv-x="1025" 
d="M512 858q-139 0 -257 -56t-186.5 -153.5t-68.5 -212.5q0 -81 36.5 -156.5t105.5 -133.5l-102 -206q-9 -13 2 -24q6 -6 16 -6q6 0 10 2l274 128q81 -24 170 -24q139 0 257 56t186.5 153t68.5 211q0 115 -68.5 212.5t-186.5 153.5t-257 56zM512 58q-85 0 -166 24
q-7 4 -14 0l-228 -106l84 166q3 6 1.5 14t-7.5 12q-67 54 -103.5 123.5t-36.5 144.5q0 103 63.5 190.5t171.5 138.5t235 51t235 -51t171.5 -138.5t63.5 -190.5q0 -102 -63 -189.5t-171.5 -138t-235.5 -50.5zM534 664q-63 0 -106.5 -44.5t-43.5 -107.5q0 -9 6.5 -15.5
t15.5 -6.5t14.5 6.5t5.5 15.5q0 45 32 77.5t76 32.5t75 -31.5t31 -75t-31 -74.5t-75 -31q-9 0 -15.5 -5.5t-6.5 -14.5v-54q0 -9 6.5 -15.5t15.5 -6.5t14.5 6.5t5.5 15.5v34q54 8 91 49.5t37 96.5q0 61 -43 104.5t-105 43.5zM576 240q0 -18 -12.5 -30t-29.5 -12q-18 0 -31 12
t-13 30t13 30t31 12q17 0 29.5 -12t12.5 -30z" />
    <glyph glyph-name="uniE615" unicode="&#xe615;" 
d="M384 -146q-21 0 -36.5 15t-15.5 36.5t15.5 36.5t36.5 15t36 -15t15 -36.5t-15 -36.5t-36 -15zM738 -146q-21 0 -36.5 15t-15.5 36.5t15.5 36.5t36.5 15t36 -15t15 -36.5t-15 -36.5t-36 -15zM377 -19q-27 0 -48.5 19t-24.5 47l-43 302l-25 141q-1 9 -8 15.5t-15 6.5h-32
q-11 0 -18.5 7.5t-7.5 18.5t7.5 18.5t18.5 7.5h32q28 0 50 -19t25 -47l24 -149l43 -303q2 -3 8.5 -8t13.5 -5h411q11 0 18.5 -7.5t7.5 -18.5t-7.5 -18.5t-18.5 -7.5h-411zM409 82q-10 0 -17.5 7t-8.5 17q-1 11 6 19t18 9l343 25q9 0 16 6t8 15l40 138q1 14 -7 23q-4 5 -11 5
h-438q-11 0 -18.5 7.5t-7.5 18.5t7.5 18.5t18.5 7.5h438q30 0 51 -22q23 -27 18 -66l-39 -138q-4 -27 -25 -46t-49 -19l-341 -25h-2zM468 580q4 -2 12 -7t28.5 -21.5t36.5 -34t30 -44.5t15 -53q17 39 54 77t66 57l29 19l-97 -29q15 147 -75 192q-62 30 -136 1
q-60 -24 -73 -68q-1 -2 -1 -5q8 14 30 24t49.5 14.5t56 -1.5t51 -21t34 -47.5t4.5 -77.5l-114 25v0z" />
    <glyph glyph-name="uniE616" unicode="&#xe616;" 
d="M904 593h-378q-11 0 -19 8t-8 18.5t8 18.5t19 8h378q11 0 18.5 -8t7.5 -18.5t-7.5 -18.5t-18.5 -8zM904 376h-378q-11 0 -19 7.5t-8 18.5t8 19t19 8h378q11 0 18.5 -8t7.5 -19t-7.5 -18.5t-18.5 -7.5zM358 343h-180q-35 0 -59.5 24.5t-24.5 59.5v180q0 35 24.5 59.5
t59.5 24.5h180q35 0 59.5 -24.5t24.5 -59.5v-180q0 -35 -24.5 -59.5t-59.5 -24.5zM178 641q-14 0 -24 -10t-10 -24v-180q0 -14 10 -23.5t24 -9.5h180q14 0 24 9.5t10 23.5v180q0 14 -10 24t-24 10h-180zM904 158h-378q-11 0 -19 8t-8 19t8 18.5t19 7.5h378q11 0 18.5 -7.5
t7.5 -18.5t-7.5 -19t-18.5 -8zM904 -59h-378q-11 0 -19 8t-8 18.5t8 18.5t19 8h378q11 0 18.5 -8t7.5 -18.5t-7.5 -18.5t-18.5 -8zM358 -91h-180q-35 0 -59.5 24.5t-24.5 59.5v180q0 35 24.5 59.5t59.5 24.5h180q35 0 59.5 -24.5t24.5 -59.5v-180q0 -35 -24.5 -59.5
t-59.5 -24.5zM178 206q-14 0 -24 -9.5t-10 -23.5v-180q0 -14 10 -24t24 -10h180q14 0 24 10t10 24v180q0 14 -10 23.5t-24 9.5h-180z" />
    <glyph glyph-name="uniE617" unicode="&#xe617;" horiz-adv-x="1030" 
d="M517 812q-104 0 -198.5 -40.5t-163 -109.5t-109.5 -163.5t-41 -198.5t41 -198.5t109.5 -163.5t163 -109.5t198.5 -40.5t198.5 40.5t163.5 109.5t109.5 163.5t40.5 198.5t-40.5 198.5t-109.5 163.5t-163.5 109.5t-198.5 40.5zM486 29l-35 -41l-41 36l-195 184l72 72
l153 -149l333 399l77 -66z" />
    <glyph glyph-name="uniE618" unicode="&#xe618;" 
d="M953 13l-394 628q-16 25 -47 25t-47 -25l-394 -628q-16 -27 1 -54q16 -25 46 -25h788q30 0 46 25q17 27 1 54zM562 34q0 -9 -5 -15.5t-13 -6.5h-62q-8 0 -13.5 6.5t-5.5 15.5v38q0 9 5.5 15.5t13.5 6.5h62q8 0 13 -6.5t5 -15.5v-38zM557 157q-5 -4 -13 -4h-62
q-8 0 -13 4.5t-5 10.5l-1 106v166q0 6 5.5 10.5t12.5 4.5h63q8 0 13 -4.5t5 -10.5v-165v-107q0 -7 -5 -11z" />
    <glyph glyph-name="uniE619" unicode="&#xe619;" 
d="M512 693q98 0 166.5 -69t68.5 -166.5t-68.5 -166t-166.5 -68.5t-166.5 68.5t-68.5 166t68.5 166.5t166.5 69zM512 757q-123 0 -211 -88t-88 -211t88 -211t211 -88t211 88t88 211t-88 211t-211 88zM917 -157q-16 0 -25 13q-66 93 -166 145t-214 52t-214 -52t-166 -145
q-8 -11 -21 -13t-24 5q-10 8 -12.5 21t4.5 24q75 105 190 164.5t243 59.5t243 -59.5t190 -164.5q8 -12 5.5 -24.5t-13.5 -20.5q-7 -5 -20 -5z" />
    <glyph glyph-name="uniE61A" unicode="&#xe61a;" 
d="M1021 323l-418 417q-16 16 -26 25t-29 19t-36 10t-36 -10t-29.5 -19.5t-28.5 -26.5l-415 -415l37 -36l75 75v-554h51h195v-1h51v366h200v-366h51v1h197h51v551l73 -73zM860 -141h-197v365h-302v-365h-195v552h-2l292 292q40 40 56 40t57 -42l291 -291v-551z" />
    <glyph glyph-name="uniE61B" unicode="&#xe61b;" 
d="M100 418l503 291q3 1 6 3q24 12 52 3q25 -7 39 -30q1 0 4 -6l143 -248h44q30 0 50 -22q19 -22 19 -51v-404q0 -30 -19 -50q-20 -23 -50 -23h-587q-30 0 -50 23q-19 20 -19 50v87l-161 277q-15 26 -8 54q6 29 32 45zM827 362h-522v0h-1v0v-1v0v-1v0v-1v0v-1v-308v-1v-95
q0 -3 1 -4h585q2 2 2 4v404q0 4 -2 4h-63zM350 258v0h132q9 0 15 -6t6 -15v-132q0 -9 -6 -15t-15 -6h-132q-9 0 -15 6t-6 15v1v131q0 9 6 15t15 6zM462 217h-91v-91h91v91zM328 25q0 8 6.5 14t14.5 6q9 0 15 -6t6 -14v-39q0 -8 -6 -14t-15 -6q-8 0 -14.5 6t-6.5 14v39z
M524 25q0 8 6 14t14.5 6t15 -6t6.5 -14v-39q0 -8 -6.5 -14t-15 -6t-14.5 6t-6 14v39zM720 25q0 8 6 14t14 6q9 0 15 -6t6 -14v-39q0 -8 -6 -14t-15 -6q-8 0 -14 6t-6 14v39zM386 25q0 8 6 14t15 6q8 0 14 -6t6 -14v-39q0 -8 -6 -14t-14 -6q-9 0 -15 6t-6 14v39zM582 25
q0 8 6 14t15 6q8 0 14 -6t6 -14v-39q0 -8 -6 -14t-14 -6q-9 0 -15 6t-6 14v39zM778 25q0 8 6 14t14.5 6t14.5 -6t6 -14v-39q0 -8 -6 -14t-14.5 -6t-14.5 6t-6 14v39zM444 25q0 8 6 14t14.5 6t14.5 -6t6 -14v-39q0 -8 -6 -14t-14.5 -6t-14.5 6t-6 14v39zM639 25q0 8 6.5 14
t14.5 6t14.5 -6t6.5 -14v-39q0 -8 -6.5 -14t-14.5 -6t-14.5 6t-6.5 14v39zM835 25q0 8 6 14t14.5 6t15 -6t6.5 -14v-39q0 -8 -6.5 -14t-15 -6t-14.5 6t-6 14v39zM640 650v0v0zM640 650l-506 -292l-1 -1h-1h1q0 -1 1 -4l101 -175v180q0 30 20 51.5t49 21.5h464l-124 215l-1 1
q-2 3 -3 3zM133 357v0v0z" />
    <glyph glyph-name="uniE61C" unicode="&#xe61c;" 
d="M619 812h-224q-21 0 -35.5 -16t-14.5 -39t14.5 -39t35.5 -16h226q20 0 34 16.5t14 39t-14.5 38.5t-35.5 16zM748 48h-486q-13 0 -24.5 13t-11.5 27q0 13 10 23t23 10h485q14 0 24 -9.5t11 -23.5q0 -15 -9 -27.5t-22 -12.5zM750 243h-486q-13 0 -21 11.5t-8 25.5t10 25
t23 11h485q13 0 23 -10.5t11 -25.5q0 -13 -11.5 -25t-25.5 -12zM750 443h-486q-13 0 -21 11.5t-8 26.5q0 13 10 24t23 11h485q13 0 23 -10.5t11 -24.5q0 -14 -11.5 -26t-25.5 -12zM863 725q39 0 57 -19q17 -18 17 -57v-736q0 -45 -16 -59q-17 -16 -65 -16h-699q-42 0 -56 16
t-14 59v736q0 45 12 61q5 6 14 10q13 5 37 5h65q10 -47 44 -78t78 -31h343q42 0 76 31t44 78h63zM863 775zM863 775h-112q2 -9 2 -18q0 -35 -22 -63t-51 -28h-343q-31 0 -53.5 28t-22.5 63q0 9 2 18h-113q-64 0 -88.5 -32t-24.5 -94v-736q0 -63 28 -94t92 -31h699
q68 0 99.5 29.5t31.5 95.5v736q0 58 -31.5 92t-92.5 34z" />
    <glyph glyph-name="uniE61D" unicode="&#xe61d;" horiz-adv-x="1057" 
d="M725 547q0 82 -57.5 139t-139.5 57t-139.5 -57t-57.5 -138.5t57.5 -139t139.5 -57.5t139.5 57.5t57.5 138.5zM375 547q0 64 45 108.5t108 44.5t108 -44.5t45 -108t-45 -108t-108 -44.5t-108 44.5t-45 107.5zM878 547q0 95 -46.5 175.5t-127.5 127t-176 46.5t-176 -46.5
t-127.5 -127t-46.5 -175.5q0 -54 36 -136.5t87.5 -162t103 -151t87.5 -116.5t36 -44q14 17 37.5 46.5t84 112t107 155.5t84 157.5t37.5 138.5zM528 852q127 0 217 -89t90 -216q0 -47 -32 -120t-77 -144.5t-90 -135.5t-76.5 -104.5t-31.5 -39.5q-12 15 -33 41.5t-73.5 100.5
t-93 139.5t-73.5 140.5t-33 122q0 127 89.5 216t216.5 89zM683 77q-14 -18 -28 -38q71 -8 114.5 -23.5t43.5 -34.5q0 -27 -83.5 -46t-201.5 -19t-201.5 19t-83.5 46q0 19 43.5 34.5t114.5 23.5q-14 20 -28 38q-79 -14 -126 -39.5t-47 -56.5q0 -45 96 -77t232 -32t232 32
t96 77q0 31 -47 56.5t-126 39.5zM683 77z" />
    <glyph glyph-name="uniE61E" unicode="&#xe61e;" 
d="M908 526l-150 148q-10 10 -24 10h-216v5q0 51 -37.5 87t-90 36t-90 -36t-37.5 -87v-5h-123q-14 0 -24 -10t-10 -25v-826q0 -15 10 -25t24 -10h743q15 0 25 10t10 25v679q0 14 -10 24zM335 689q0 21 16 36t39.5 15t39.5 -15t16 -36q0 -2 1 -5h-112v5v0zM849 -143h-674v758
h88v-251q0 -51 37.5 -87t90 -36t90 36t37.5 87v144q0 15 -10.5 25.5t-25.5 10.5t-25.5 -10.5t-10.5 -25.5v-144q0 -21 -16 -36t-39.5 -15t-39.5 15t-16 36v251h378v-114q0 -8 6 -14t15 -6h115v-624v0zM849 -143z" />
    <glyph glyph-name="uniE61F" unicode="&#xe61f;" 
d="M151 663q120 119 288 144q102 14 200 -11t180 -86.5t133.5 -148.5t66.5 -188q15 -103 -12 -202.5t-85 -177.5t-146 -131.5t-191 -68.5q-88 -12 -175.5 5.5t-162.5 63.5q-13 8 -16.5 22.5t4 27.5t22.5 17t28 -4q134 -82 289 -59q118 16 210 89t135.5 181t26.5 226
q-12 87 -56.5 161.5t-114.5 127.5t-154 74.5t-171 8.5q-118 -17 -210 -89.5t-135.5 -181t-26.5 -225.5q13 -95 64 -175q9 -12 5.5 -27t-16 -23t-27.5 -5t-23 16q-60 93 -76 203q-14 102 11 200t86 180q23 30 49 56zM151 663zM553 269h223q15 0 25.5 10.5t10.5 26t-10.5 26
t-25.5 10.5h-223l-1 221q0 15 -10.5 26t-26 10.5t-26 -11t-10.5 -25.5l1 -221h-221q-15 0 -26 -10.5t-11 -25.5t11 -26t26 -11h221l1 -224q0 -16 10.5 -26.5t26 -10.5t26 11t10.5 26zM567 305z" />
    <glyph glyph-name="uniE620" unicode="&#xe620;" 
d="M64 532l448 -465l447 465h-895zM64 532z" />
    <glyph glyph-name="uniE621" unicode="&#xe621;" 
d="M512 808q-103 0 -197 -40.5t-162.5 -108.5t-108.5 -162t-40 -197.5t40 -197.5t108.5 -162t162.5 -108.5t197.5 -40.5t197.5 40.5t162 108.5t108.5 162t40.5 197.5t-40.5 197.5t-108.5 162t-162 108.5t-198 40.5zM644 300h-84v-305h-114v305h-76v105h76v62q0 70 26.5 104
t97.5 34h84v-106h-52q-28 0 -35 -9t-7 -33v-52h95zM644 300z" />
    <glyph glyph-name="uniE622" unicode="&#xe622;" 
d="M0 812zM512 792q-100 0 -191 -39t-157 -105t-105 -157t-39 -191t39 -191t105 -157t157 -105t191 -39t191 39t157 105t105 157t39 191t-39 191t-105 157t-157 105t-191 39zM712 389v-13q0 -49 -18.5 -97t-52 -88t-87 -65t-117.5 -25q-81 0 -149 43q11 -1 23 -1
q68 0 121 42q-32 0 -56.5 19t-34.5 48q9 -2 18 -2q13 0 26 3q-34 7 -56 33.5t-22 61.5v1q21 -11 44 -12q-43 29 -43 81q0 26 13 49q37 -45 88.5 -72t111.5 -30q-3 11 -3 23q0 40 28.5 68t68.5 28q42 0 71 -30q33 6 61 23q-11 -34 -42 -53q29 3 55 15q-19 -29 -48 -50z" />
    <glyph glyph-name="uniE623" unicode="&#xe623;" 
d="M355 326h114q6 0 10 3.5t4 9t-4 9t-10 3.5h-114q-6 0 -10 -3.5t-4 -9t4 -9t10 -3.5zM355 403h114q6 0 10 3.5t4 9t-4 9t-10 3.5h-114q-6 0 -10 -3.5t-4 -9t4 -9t10 -3.5zM355 479h114q6 0 10 4t4 9t-4 9t-10 4h-114q-6 0 -10 -4t-4 -9t4 -9t10 -4zM526 505h142v-179h-142
v179zM355 172h313q6 0 10 4t4 9t-4 9t-10 4h-313q-6 0 -10 -4t-4 -9t4 -9t10 -4zM355 249h313q6 0 10 4t4 9t-4 9t-10 4h-313q-6 0 -10 -4t-4 -9t4 -9t10 -4zM512 812q-104 0 -199 -40.5t-163.5 -109t-109 -163.5t-40.5 -199t40.5 -198.5t109 -163t163.5 -109t199 -40.5
t198.5 40.5t163 109t109 163t40.5 198.5t-40.5 199t-109 163.5t-163 109t-198.5 40.5zM768 6h-512v588h512v-588zM355 96h313q6 0 10 3.5t4 9t-4 9t-10 3.5h-313q-6 0 -10 -3.5t-4 -9t4 -9t10 -3.5z" />
    <glyph glyph-name="uniE624" unicode="&#xe624;" horiz-adv-x="1025" 
d="M461 26q-20 0 -34 15l-198 197q-14 14 -14 34t14 34t34 14t34 -14l164 -164l418 419q14 14 34 14t34 -14.5t14 -34t-14 -33.5l-452 -452q-14 -15 -34 -15zM512 -212q-104 0 -199 40.5t-163.5 109t-109 163.5t-40.5 199t40.5 199t109 163.5t163.5 109t199 40.5
q154 0 282 -85q13 -8 16 -23t-5.5 -27.5t-23.5 -15.5t-27 5q-110 73 -242 73q-89 0 -170.5 -35t-140 -93.5t-93.5 -140t-35 -170.5t35 -170.5t93.5 -140t140 -93.5t170.5 -35t170.5 35t140 93.5t93.5 140t35 170.5q0 23 -2 46q-2 15 7.5 26.5t24.5 13t27 -8t13 -24.5
q3 -26 3 -53q0 -104 -40.5 -199t-109 -163.5t-163.5 -109t-199 -40.5zM512 -212z" />
    <glyph glyph-name="uniE625" unicode="&#xe625;" 
d="M214 -197h-1v0h1zM1020 -165q4 -8 4 -15q0 -13 -9.5 -22.5t-23 -9.5t-23 9.5t-9.5 22.5h-1q-34 152 -159 252t-287 100t-287 -100t-159 -252h-1q0 -13 -9.5 -22.5t-23 -9.5t-23 9.5t-9.5 22.5q0 7 4 15q30 134 124.5 235.5t227.5 142.5q-77 41 -123.5 115.5t-46.5 163.5
q0 87 43.5 160.5t118.5 116.5t164 43t164 -43t118.5 -116.5t43.5 -160.5q0 -89 -46.5 -163.5t-123.5 -115.5q133 -41 227.5 -142.5t124.5 -235.5zM773 492q0 106 -76.5 181t-184.5 75t-184.5 -75t-76.5 -181t76.5 -181t184.5 -75t184.5 75t76.5 181z" />
    <glyph glyph-name="uniE626" unicode="&#xe626;" 
d="M501 215h21q13 0 22 -9.5t9 -22.5v-149q0 -13 -9 -22.5t-22 -9.5h-21q-14 0 -23 9.5t-9 22.5v149q0 13 9 22.5t23 9.5zM852 322v-383q0 -17 -12.5 -29.5t-29.5 -12.5h-596q-17 0 -29.5 12.5t-12.5 29.5v383h680zM917 385h-808v-448q0 -43 31 -74t76 -31h595q44 0 76 31
t32 74v448h-2zM831 385h-63v63q0 107 -76 181t-179 74q-104 0 -179.5 -75.5t-75.5 -179.5v-63h-63v63q0 86 43.5 159.5t117 117t159.5 43.5q85 0 158.5 -41.5t117 -115.5t43.5 -163v-63h-3zM831 385z" />
    <glyph glyph-name="uniE627" unicode="&#xe627;" 
d="M666.5 684q-82.5 0 -140.5 -58t-58 -140q0 -57 31 -106l-321 -321q-19 -19 -19 -45.5t19 -45.5t45.5 -19t45.5 19l47 47q4 -7 6 -9l36 -36q13 -13 30.5 -13t30.5 13l97 97q13 13 13 30.5t-13 30.5l-36 37q-2 1 -9 5l125 125q1 1 1.5 2.5t1.5 2.5q35 -13 68 -13
q82 0 140 58.5t58 140.5t-58 140t-140.5 58zM666.5 416q-28.5 0 -49 20.5t-20.5 49.5t20.5 49.5t49 20.5t49 -20.5t20.5 -49.5t-20.5 -49.5t-49 -20.5z" />
    <glyph glyph-name="uniE628" unicode="&#xe628;" 
d="M703 -107h-577q-29 0 -49.5 20.5t-20.5 49.5v674q0 29 20.5 49.5t49.5 20.5h573q9 0 15.5 6.5t6.5 15.5q0 8 -5 14t-13 8h-577q-47 0 -80.5 -33.5t-33.5 -80.5v-674q0 -47 33.5 -80.5t80.5 -33.5h573q9 0 15.5 6.5t6.5 15.5q0 8 -5 14.5t-13 7.5zM1007 318l-135 135
l-22 23l-26 25q-6 7 -15 7t-16 -7q-14 -14 -2 -29l39 -39l110 -110h-435q-9 0 -15.5 -6.5t-6.5 -16t6.5 -16t15.5 -6.5h435l-100 -100l-6 -6l-46 -46q-8 -16 3 -27q7 -6 16 -6q10 0 18 7l12 12l33 34l7 6l130 131q7 7 6 17v1q1 10 -6 17z" />
    <glyph glyph-name="uniE629" unicode="&#xe629;" 
d="M512 598q-63 0 -107 -44t-44 -106.5t44 -107t106.5 -44.5t107 44.5t44.5 107t-44.5 106.5t-106.5 44zM512 812q-104 0 -199 -41t-163.5 -109.5t-109 -163t-40.5 -198.5t40.5 -199t109 -163.5t163.5 -109t199 -40.5t199 40.5t163.5 109t109 163.5t40.5 199t-40.5 198.5
t-109 163t-163.5 109.5t-199 41zM776 -5q-5 0 -10.5 5t-9.5 9l-3 4q-15 98 -83 162.5t-158 64.5t-158 -64.5t-83 -162.5q-5 -17 -23 -18q-12 -1 -20 0.5t-11 4.5t-5 6t-2 5l1 2q3 88 54 158.5t132 102.5q-42 29 -67 74.5t-25 98.5q0 86 60.5 147t146.5 61t146.5 -61
t60.5 -147q0 -53 -25 -98.5t-67 -74.5q81 -32 132 -102.5t54 -158.5q0 -10 -14 -16q-9 -4 -23 -2zM776 -5z" />
    <glyph glyph-name="uniE62A" unicode="&#xe62a;" horiz-adv-x="1029" 
d="M451 593q-13 -26 -13 -45q0 -13 13 -39q12 -23 39 -32v141q-20 -6 -39 -25zM560 342v-160q19 6 38.5 25.5t19.5 51.5q0 25 -19 45q-6 16 -13.5 25t-25.5 13zM875 747q-98 98 -230.5 132.5t-265 0t-230.5 -132.5q-73 -74 -111 -170t-38 -193t38 -193t111.5 -169.5
t169.5 -111.5t193 -38t193 38t170 111q75 74 114.5 170t39.5 193t-39.5 193t-114.5 170zM676 150q-28 -28 -54.5 -44t-61.5 -21v-96h-70v96q-68 10 -110 52q-49 49 -57 128l109 13q0 -38 19 -58q3 -2 10.5 -11t13.5 -13.5t15 -7.5v167q-44 15 -70.5 31t-45.5 40
q-39 48 -39 115q0 71 45 116q41 51 110 51v58h70v-58q60 -8 96 -45q43 -42 52 -96l-109 -13q-6 27 -13.5 41t-25.5 23v-160q95 -29 129 -71q38 -38 38 -109q-11 -88 -51 -128zM676 150z" />
    <glyph glyph-name="uniE62B" unicode="&#xe62b;" 
d="M512 896q-139 0 -257 -68.5t-186.5 -186.5t-68.5 -257t68.5 -257t186.5 -186.5t257 -68.5t257 68.5t186.5 186.5t68.5 257t-68.5 257t-186.5 186.5t-257 68.5zM473 65h-155q-33 0 -55.5 21.5t-22.5 52.5v445q0 31 22.5 52.5t55.5 21.5h428q32 0 55 -21.5t23 -52.5v-148
h-78v111q0 15 -11.5 26t-27.5 11h-350q-16 0 -27.5 -11t-11.5 -26v-371q0 -15 11 -26t28 -11h116v-74zM396 436v74h233v-74h-233zM590 399v-75h-194v75h194zM512 213h-117v74h117v-74zM531 65l19 91l76 -73zM648 104l-76 73l136 130l77 -73zM804 252l-76 73l38 36l76 -72z
" />
    <glyph glyph-name="uniE62C" unicode="&#xe62c;" 
d="M618 368q65 27 135 27h7h6q34 85 17 184q-19 109 -109 172.5t-198 44.5q-54 -10 -101.5 -35t-82 -61.5t-50 -85t-6.5 -101.5q10 -60 39 -116l-262 -377q-7 -10 -10.5 -26.5t-1.5 -29.5l11 -64q-1 7 -2 15l-1 7v-2q10 -43 15 -43l86 -1q12 2 26 11.5t21 19.5l103 162l1 1
l90 -7l121 189h1q17 23 36 42q47 48 109 74zM70 -20l-13 -5l1 14l251 363l15 -14zM450 649q30 43 81 52t93.5 -21t51.5 -81.5t-21 -94.5q-7 -10 -15 -16.5t-14.5 -9.5t-16 -1.5t-15.5 3t-18 8.5t-17.5 11t-19.5 14t-20 15q-7 4 -21 14t-20 14t-16 12.5t-13.5 14t-8.5 14
t-4 15.5t4 17t10 20zM749 325q-114 0 -194.5 -80t-80.5 -194t80.5 -194.5t194.5 -80.5t194.5 80.5t80.5 194.5t-80.5 194t-194.5 80zM908 -62q0 -50 -152 -50q-154 0 -154 50v11q0 21 30.5 42t70.5 36q3 1 6 4t6 10.5t-2 18.5q-18 18 -29 45t-11 54q0 41 23.5 64t58.5 23
t59 -23t24 -64q0 -57 -41 -99h1q-6 -12 -3 -20t5.5 -10.5t4.5 -2.5q41 -14 72 -35t31 -43v-11z" />
    <glyph glyph-name="uniE62D" unicode="&#xe62d;" 
d="M363 412l-27 -163h56l-28 163h-1zM511.5 749q-91.5 0 -174.5 -35.5t-143 -95.5t-96 -143.5t-36 -174.5t36 -174.5t96 -143.5t143 -95.5t174.5 -35.5t174.5 35.5t143 95.5t95.5 143.5t35.5 174.5t-35.5 174.5t-95.5 143.5t-143 95.5t-174.5 35.5zM414 106l-10 68h-80
l-10 -68h-105l92 385h126l94 -385h-107zM794 226.5q-3 -34.5 -15 -61.5t-36 -43t-68 -16h-145v385h145q44 0 68 -16t36 -42.5t15 -61.5t3 -72.5t-3 -72zM686.5 398q-4.5 13 -13.5 17t-23 4h-20v-240h20q14 0 23 4t13.5 17t5.5 36.5t1 62t-1 62.5t-5.5 37z" />
    <glyph glyph-name="uniE62E" unicode="&#xe62e;" 
d="M874 -40zM511 748q-91 0 -174 -35.5t-143 -95.5t-95.5 -143t-35.5 -174t35.5 -173.5t95.5 -142.5t143 -95.5t174 -35.5q139 0 254 79l-1 1q12 9 12 25q0 13 -9 22.5t-23 9.5t-24 -11q-95 -62 -209 -62q-104 0 -192.5 51.5t-140 140t-51.5 192.5t51.5 192.5t140 140
t192.5 51.5t192.5 -51.5t140 -140t51.5 -192.5q0 -129 -78 -232q-11 -9 -11 -24q0 -13 9.5 -22.5t22.5 -9.5t22 8v1q4 3 7 8q91 120 91 270q0 91 -35.5 174t-95.5 143t-142.5 95.5t-173.5 35.5zM285 174l206 -124v243l-206 124v-243zM504 552l-194 -101l201 -126l201 103z
M534 294v-243l201 103v243z" />
    <glyph glyph-name="uniE62F" unicode="&#xe62f;" 
d="M511.5 876q-100.5 0 -191.5 -39t-157 -105.5t-105 -157.5t-39 -191.5t39 -191.5t105 -157t157 -105.5t191.5 -39.5t192 39.5t157.5 105.5t105 157t39 191.5t-39 191.5t-105 157.5t-157.5 105.5t-192 39zM754 202q0 -15 -10.5 -25.5t-25.5 -10.5h-414q-15 0 -25.5 10.5
t-10.5 25.5v216q94 -48 180 -68v-22q0 -7 5.5 -12.5t12.5 -5.5h90q8 0 13 5.5t5 12.5v22q38 9 83 26t71 29l26 13v-216zM466 346v18q0 8 5.5 13t12.5 5h54q8 0 13 -5t5 -13v-18q0 -7 -5 -12.5t-13 -5.5h-54q-7 0 -12.5 5.5t-5.5 12.5zM754 436q-94 -50 -180 -70v16
q0 8 -5 13t-13 5h-90q-7 0 -12.5 -5t-5.5 -13v-16q-38 9 -83 26.5t-71 30.5l-26 13v72q0 15 10.5 25.5t25.5 10.5h108v36q0 15 10.5 25.5t25.5 10.5h126q15 0 25.5 -10.5t10.5 -25.5v-36h108q15 0 25.5 -10.5t10.5 -25.5v-72zM555 580h-90q-7 0 -12.5 -5.5t-5.5 -12.5v-18
h126v18q0 7 -5 12.5t-13 5.5z" />
    <glyph glyph-name="uniE630" unicode="&#xe630;" 
d="M418 190h-35v54q0 33 -6.5 59t-16.5 41.5t-24 26t-25.5 15t-25 6t-19 1.5t-10.5 -1h-1q-30 0 -54 -10t-36.5 -27t-20.5 -33t-10.5 -36t-3 -27.5t-0.5 -14.5v-54h-38q-12 0 -20 -7.5t-8 -18.5v-201q0 -11 8 -18.5t20 -7.5h326q12 0 20.5 7.5t8.5 18.5v201q0 11 -8.5 18.5
t-20.5 7.5zM176 244v12q0 7 4 24t11 30t23.5 23.5t38.5 10.5h2q7 0 13 -0.5t18.5 -6t21.5 -15t16 -30t7 -48.5v-54h-155v54zM960 7q0 -51 -64 -67l-14 -3h-246h-81q-2 0 -4.5 0.5t-9.5 2.5t-12.5 5.5t-10 11.5t-4.5 20l-1 197q0 93 -17.5 152t-52 91t-94.5 52q-2 1 -9.5 6.5
t-8.5 6.5t-7 5.5t-6.5 6t-4.5 6t-4.5 7t-3 7.5t-2.5 9.5t-0.5 10.5t-0.5 13q0 13 4 23t9.5 14.5t11 7t9.5 2.5h4l14 77q11 62 67 109.5t142 51.5h3h2h3h3v-1q75 -3 129.5 -51.5t64.5 -108.5l14 -77h4q3 0 9.5 -2.5t12 -7t9.5 -14.5t4 -23q0 -33 -10 -51t-37 -38
q-14 -10 -22 -31.5t-19.5 -48t-33.5 -46.5q-17 -16 -25.5 -25t-15 -23.5t-6.5 -32.5q0 -16 7 -28t12 -15.5t19 -11.5q1 0 88 -32t124 -57q22 -15 34.5 -27t17.5 -26t5.5 -21t0.5 -26z" />
    <glyph glyph-name="uniE631" unicode="&#xe631;" 
d="M357 32zM512 896q-104 0 -199 -40.5t-163.5 -109t-109 -163.5t-40.5 -199t40.5 -199t109 -163.5t163.5 -109t199 -40.5t199 40.5t163.5 109t109 163.5t40.5 199t-40.5 199t-109 163.5t-163.5 109t-199 40.5zM742 128h-460v512h460v-512zM390 486h244v-41h-244v41z
M390 404h244v-40h-244v40zM390 323h244v-41h-244v41z" />
    <glyph glyph-name="uniE632" unicode="&#xe632;" 
d="M324 153l42 -42l102 37l-107 107zM513.5 749q-91.5 0 -174.5 -35.5t-143.5 -96t-96 -143.5t-35.5 -174.5t35.5 -174.5t96 -143t143.5 -95.5t174.5 -35.5t174.5 35.5t143 95.5t95.5 143t35.5 174.5t-35.5 174.5t-95.5 143.5t-143 96t-174.5 35.5zM491 125v1q-3 -2 -5 -3
l-206 -75q-9 -3 -16 3q-7 7 -3 16l75 206q1 2 3 5h-1l186 186l37 -37l-146 -145q-3 -4 -3 -9t3.5 -8.5t8.5 -3.5t8 4l146 145l45 -45l-145 -145q-8 -8 0 -17q4 -3 9 -3t8 3l145 145l37 -37zM751 386l-58 -58l-65 64l-87 88l58 58q16 16 38 16t38 -16l76 -77q16 -15 16 -37.5
t-16 -37.5z" />
    <glyph glyph-name="uniE633" unicode="&#xe633;" 
d="M427 476h160q8 0 14 6t6 14t-6 14t-14 6h-160q-9 0 -14.5 -6t-5.5 -14t5.5 -14t14.5 -6zM587 416h-160q-25 0 -42.5 -17.5t-17.5 -42.5v-60v-153q0 -24 17.5 -42t42.5 -18h160q25 0 42.5 18t17.5 42v153v60q0 25 -17.5 42.5t-42.5 17.5zM447 143q0 -8 -6 -14t-14.5 -6
t-14 6t-5.5 14v213q0 8 5.5 14t14 6t14.5 -6t6 -14v-213zM527 143q0 -8 -6 -14t-14 -6t-14 6t-6 14v213q0 8 6 14t14 6t14 -6t6 -14v-213zM607 143q0 -8 -6 -14t-14 -6t-14 6t-6 14v213q0 8 6 14t14 6t14 -6t6 -14v-213zM513.5 749q-91.5 0 -174.5 -35.5t-143.5 -96
t-96 -143.5t-35.5 -174.5t35.5 -174.5t96 -143t143.5 -95.5t174.5 -35.5t174.5 35.5t143 95.5t95.5 143t35.5 174.5t-35.5 174.5t-95.5 143.5t-143 96t-174.5 35.5zM727 416h-43q3 -10 3 -20v-293q0 -24 -17.5 -42t-42.5 -18h-240q-25 0 -42.5 18t-17.5 42v293q0 10 3 20
h-44q-8 0 -14 6t-6 14t6 14t14 6h81v20v20q0 25 17.5 42.5t42.5 17.5h160q25 0 42.5 -17.5t17.5 -42.5v-20v-20h80q9 0 14.5 -6t5.5 -14t-5.5 -14t-14.5 -6z" />
    <glyph glyph-name="uniE634" unicode="&#xe634;" 
d="M829 -82h-639q-53 0 -90.5 37.5t-37.5 90.5v159q0 14 9.5 23t22.5 9h64q13 0 22.5 -9t9.5 -23v-95q0 -27 19 -45.5t45 -18.5h511q27 0 45.5 18.5t18.5 45.5v95q0 14 9.5 23t22.5 9h64q13 0 22.5 -9t9.5 -23v-159q0 -53 -37.5 -90.5t-90.5 -37.5zM769 378q-9 -10 -23 -10
t-24 10l-149 149v-322q0 -13 -9 -22.5t-22 -9.5h-64q-14 0 -23 9.5t-9 22.5v322l-149 -149q-10 -10 -23.5 -10t-23.5 10l-47 47q-10 9 -10 23t10 24l264 263q1 1 6.5 4t16 6.5t20 3.5t20 -3.5t16 -6.5t6.5 -4l264 -263q10 -10 10 -24t-10 -23z" />
    <glyph glyph-name="uniE635" unicode="&#xe635;" 
d="M829 -82h-639q-53 0 -90.5 37.5t-37.5 90.5v159q0 14 9.5 23t22.5 9h64q13 0 22.5 -9t9.5 -23v-95q0 -27 19 -45.5t45 -18.5h511q27 0 45.5 18.5t18.5 45.5v95q0 14 9.5 23t22.5 9h64q13 0 22.5 -9t9.5 -23v-159q0 -53 -37.5 -90.5t-90.5 -37.5zM250 544q10 10 23.5 10
t23.5 -10l149 -148v321q0 13 9 22.5t23 9.5h64q13 0 22 -9.5t9 -22.5v-321l149 148q10 10 24 10t23 -10l47 -46q10 -10 10 -23.5t-10 -23.5l-264 -264q-1 -1 -6.5 -4t-16 -6.5t-19.5 -3.5t-20 3.5t-16.5 6.5t-6.5 4l-264 264q-10 10 -10 23.5t10 23.5z" />
    <glyph glyph-name="uniE636" unicode="&#xe636;" 
d="M512 747q-91 0 -173.5 -35.5t-142.5 -95.5t-95.5 -142.5t-35.5 -173.5t35.5 -173.5t95.5 -142.5t142.5 -95.5t173.5 -35.5t173.5 35.5t142.5 95.5t95.5 142.5t35.5 173.5t-35.5 173.5t-95.5 142.5t-142.5 95.5t-173.5 35.5zM512 -35q-91 0 -168 45t-122 122t-45 168
t45 168t122 122t168 45t168 -45t122 -122t45 -168t-45 -168t-122 -122t-168 -45zM706 573l-467 -467q33 -46 79 -79l467 467q-33 46 -79 79z" />
    <glyph glyph-name="uniE637" unicode="&#xe637;" 
d="M396 244q-79 25 -129.5 92.5t-50.5 153.5q0 107 76 182.5t182.5 75.5t182.5 -75.5t76 -182.5q0 -25 -5 -49l64 -45q13 46 13 94q0 89 -44 165.5t-120.5 120.5t-166 44t-166 -44t-120.5 -120.5t-44 -165.5q0 -116 71 -205.5t181 -116.5v76zM462 561l-1 -507q6 8 17 21.5
t50.5 48t84 59.5t116.5 43t150 12zM796 13q8 -14 -1 -34t-25 -29q-17 -9 -40.5 -3.5t-30.5 18.5l-97 211q-8 14 -1.5 30t23.5 25t34 6t25 -17z" />
    <glyph glyph-name="uniE638" unicode="&#xe638;" 
d="M512 895q-103 0 -196 -39.5t-164 -109.5l-127 72l34 -198v-1l16 -89l272 106l-107 61q117 102 272 102q113 0 208.5 -55.5t151 -151t55.5 -208.5t-55.5 -208.5t-151 -151t-208.5 -55.5t-208.5 55.5t-151 151t-55.5 208.5h-96q0 -104 40.5 -198.5t109 -163t163 -109
t198.5 -40.5t198.5 40.5t163 109t109 163t40.5 198.5t-40.5 198.5t-109 163t-163 109t-198.5 40.5zM339.5 432q-3.5 6 -10.5 8t-13 -1l-43 -25v49q0 7 -5 12t-12 5t-12 -5t-5 -12v-49l-43 25q-6 3 -13 1t-10.5 -8t-1.5 -13t8 -11l42 -24l-42 -24q-6 -4 -8 -11t2 -13
q5 -9 15 -9q4 0 8 2l43 25v-49q0 -7 5 -12t12 -5t12 5t5 12v49l43 -25q4 -2 8 -2q10 0 15 9q4 6 2 13t-8 11l-42 24l42 24q6 4 8 11t-1.5 13zM601 432q-4 6 -10.5 8t-13.5 -1l-42 -25v49q0 7 -5 12t-12 5t-12.5 -5t-5.5 -12v-49l-42 25q-6 3 -13 1t-10.5 -8t-2 -13t8.5 -11
l42 -24l-42 -24q-7 -4 -8.5 -11t1.5 -13q5 -9 15 -9q5 0 9 2l42 25v-49q0 -7 5.5 -12t12.5 -5t12 5t5 12v49l42 -25q4 -2 9 -2q10 0 15 9q4 6 2 13t-8 11l-42 24l42 24q6 4 8 11t-2 13zM845 360l-42 24l42 24q6 4 8 11t-1.5 13t-10.5 8t-13 -1l-43 -25v49q0 7 -5 12t-12 5
t-12 -5t-5 -12v-49l-43 25q-6 3 -13 1t-10.5 -8t-1.5 -13t8 -11l42 -24l-42 -24q-6 -4 -8 -11t2 -13q5 -9 15 -9q4 0 8 2l43 25v-49q0 -7 5 -12t12 -5t12 5t5 12v49l43 -25q4 -2 8 -2q10 0 15 9q4 6 2 13t-8 11z" />
    <glyph glyph-name="uniE639" unicode="&#xe639;" 
d="M513.5 744q-90.5 0 -173 -35.5t-142.5 -95t-95 -142t-35 -173.5t35 -173.5t95 -142t142.5 -95t173 -35.5t173.5 35.5t142.5 95t95 142t35.5 173.5t-35.5 173.5t-95 142t-142.5 95t-173.5 35.5zM513.5 -76q-101.5 0 -187.5 50t-136 136.5t-50 187.5t50 187.5t136 136.5
t187.5 50t187.5 -50t136.5 -136.5t50.5 -187.5t-50.5 -187.5t-136.5 -136.5t-187.5 -50zM322 42h384v512h-384v-512zM386 489h256v-64h-256v64zM386 361h256v-63h-256v63zM386 234h256v-64h-256v64z" />
    <glyph glyph-name="uniE63A" unicode="&#xe63a;" 
d="M256 148h-52q-19 0 -34.5 -15.5t-15.5 -36.5t15.5 -36.5t34.5 -15.5h52q21 0 36.5 15.5t15.5 36.5t-15.5 36.5t-36.5 15.5zM256 352h-52q-20 0 -35 -15t-15 -37q0 -19 15.5 -34.5t34.5 -15.5h52q21 0 36.5 15t15.5 35q0 22 -15 37t-37 15zM256 556h-52q-19 0 -34.5 -15.5
t-15.5 -34.5q0 -21 15.5 -36.5t34.5 -15.5h52q21 0 36.5 15.5t15.5 36.5q0 20 -15.5 35t-36.5 15zM460 454h360q19 0 34.5 15.5t15.5 36.5q0 19 -15.5 34.5t-34.5 15.5h-360q-19 0 -34.5 -15.5t-15.5 -34.5q0 -21 15 -36.5t35 -15.5zM820 352h-360q-20 0 -35 -15t-15 -37
q0 -19 15.5 -34.5t34.5 -15.5h360q19 0 34.5 15.5t15.5 34.5q0 22 -15 37t-35 15zM820 148h-360q-20 0 -35 -15.5t-15 -36.5t15 -36.5t35 -15.5h360q19 0 34.5 15.5t15.5 36.5t-15.5 36.5t-34.5 15.5z" />
    <glyph glyph-name="uniE63B" unicode="&#xe63b;" 
d="M896 -180h-768q-40 0 -68 28t-28 68v448q0 40 28 68t68 28h64l272 209q-2 8 -2 15q0 26 18.5 45t45 19t45.5 -19t19 -45q0 -16 -9 -31l251 -193h64q40 0 68 -28t28 -68v-448q0 -40 -28 -68t-68 -28zM546 25h129v25h-101v182h-28v-207zM362 25l22 63h87l24 -63h31l-84 207
h-30l-79 -207h29zM171 207.5q-9 -13.5 -9 -29.5q0 -14 7.5 -25.5t21.5 -19.5q12 -6 40 -12.5t37 -10.5q13 -5 18.5 -12t5.5 -16.5t-6 -18t-18 -13t-27 -4.5q-18 0 -32 6t-20.5 16t-8.5 26l-26 -2q1 -21 11.5 -37.5t29.5 -24.5t47 -8q22 0 39.5 8t27 22.5t9.5 31t-8.5 29
t-26.5 21.5q-13 5 -46 12.5t-41 15t-8 18.5q0 13 11.5 22t36.5 9q23 0 35.5 -10t14.5 -29l26 2q-1 18 -10.5 32t-26.5 21.5t-40 7.5q-21 0 -38 -7t-26 -20.5zM566 634q-18 -14 -40 -14q-32 0 -52 26l-250 -186h576zM862 50h-127v70h114v24h-114v63h122v25h-149v-207h154v25z
M426 210q5 -17 15 -43l21 -57h-70l23 60q7 20 11 40z" />
    <glyph glyph-name="uniE63C" unicode="&#xe63c;" 
d="M268 -111l37 -36l451 447l-451 447l-37 -36l414 -411zM268 -111z" />
    <glyph glyph-name="uniE63D" unicode="&#xe63d;" 
d="M683 471l-86 85l-256 -255l256 -257l86 85l-171 171z" />
    <glyph glyph-name="uniE63E" unicode="&#xe63e;" 
d="M341 129l86 -85l256 255l-256 257l-86 -85l171 -171z" />
    <glyph glyph-name="uniE63F" unicode="&#xe63f;" 
d="M877 493q-9 9 -22 9t-22 -9l-319 -322l-323 320q-9 9 -22 9t-22 -9t-9 -22t9 -22l344 -341h1v-1h1q9 -9 22 -9t22 9l340 344q9 9 9 22t-9 22zM877 493z" />
    <glyph glyph-name="uniE640" unicode="&#xe640;" 
d="M513.5 672q-104.5 0 -193 -51.5t-140 -140t-51.5 -193.5t51.5 -193.5t140 -140t193 -51.5t193 51.5t140 140t51.5 193.5t-51.5 193.5t-140 140t-193 51.5zM513.5 -4q-120.5 0 -206 85t-85.5 206t85.5 206t206 85t206 -85t85.5 -206t-85.5 -206t-206 -85zM513.5 535
q-102.5 0 -175.5 -72.5t-73 -175.5t73 -175.5t175.5 -72.5t175.5 72.5t73 175.5t-73 175.5t-175.5 72.5zM514 370q-54 0 -92.5 19t-38.5 46t38.5 46t92.5 19t92 -19t38 -46t-38 -46t-92 -19z" />
    <glyph glyph-name="uniE641" unicode="&#xe641;" 
d="M643 -84h116v-63h-116v63zM279 -84h116v-63h-116v63zM643 749h116v-30h-116v30zM454 749h116v-30h-116v30zM279 749h116v-31h-116v31zM98 586h51v-518h-51v518zM875 586h52v-518h-52v518zM875 0q0 -27 -22.5 -46t-54.5 -19h-572q-32 0 -54.5 19t-22.5 46v654
q0 27 22.5 46t54.5 19h572q32 0 54.5 -19t22.5 -46v-654zM821 624h-620v-13h620v13zM821 44h-620v-14h620v14zM212 606v-558h14v558h-14zM243 606v-558h14v558h-14zM274 606v-558h14v558h-14zM305 606v-558h14v558h-14zM336 606v-558h14v558h-14zM367 606v-558h13v558h-13z
M397 606v-558h14v558h-14zM428 606v-558h14v558h-14zM459 606v-558h14v558h-14zM490 606v-558h14v558h-14zM521 606v-558h14v558h-14zM552 606v-558h13v558h-13zM582 606v-558h14v558h-14zM613 606v-558h14v558h-14zM644 606v-558h14v558h-14zM675 606v-558h14v558h-14z
M706 606v-558h13v558h-13zM736 606v-558h14v558h-14zM767 606v-558h14v558h-14zM798 606v-558h14v558h-14z" />
    <glyph glyph-name="uniE642" unicode="&#xe642;" horiz-adv-x="1025" 
d="M551 194l-9 4v340q0 11 -12 18.5t-28 7.5t-28 -7.5t-12 -18.5v-340l-9 -4q-32 -14 -51.5 -44t-19.5 -66q0 -50 35 -85.5t85 -35.5t85.5 35.5t35.5 85.5q0 36 -19.5 66t-52.5 44zM674 266l-4 5v366q0 56 -52 95q-48 36 -116 36t-116 -36q-51 -39 -51 -95v-366l-5 -5
q-38 -35 -58.5 -83t-20.5 -99q0 -104 73.5 -177.5t177.5 -73.5t177.5 73.5t73.5 177.5q0 51 -20.5 99t-58.5 83zM502 -126q-87 0 -148.5 61.5t-61.5 148.5q0 47 20 89.5t56 72.5l8 6v385q0 39 39 66q37 25 87 25t87 -25q40 -27 40 -66v-385l7 -6q36 -30 56 -72.5t20 -89.5
q0 -87 -61.5 -148.5t-148.5 -61.5zM718 610h39q7 0 11.5 4t4.5 9.5t-4.5 9t-11.5 3.5h-39q-7 0 -11.5 -3.5t-4.5 -9t4.5 -9.5t11.5 -4zM757 580h-39q-7 0 -11.5 -4t-4.5 -9.5t4.5 -9t11.5 -3.5h39q7 0 11.5 3.5t4.5 9t-4.5 9.5t-11.5 4zM757 523h-39q-7 0 -11.5 -4
t-4.5 -9.5t4.5 -9t11.5 -3.5h39q7 0 11.5 3.5t4.5 9t-4.5 9.5t-11.5 4zM757 466h-39q-7 0 -11.5 -3.5t-4.5 -9t4.5 -9.5t11.5 -4h39q7 0 11.5 4t4.5 9.5t-4.5 9t-11.5 3.5zM757 410h-39q-7 0 -11.5 -4t-4.5 -9.5t4.5 -9t11.5 -3.5h39q7 0 11.5 3.5t4.5 9t-4.5 9.5t-11.5 4z
M757 353h-39q-7 0 -11.5 -4t-4.5 -9.5t4.5 -9t11.5 -3.5h39q7 0 11.5 3.5t4.5 9t-4.5 9.5t-11.5 4z" />
    <glyph glyph-name="uniE643" unicode="&#xe643;" 
d="M147 10q0 -25 18 -43t43 -18h608q25 0 43 18t18 43v167q0 26 -18 43.5t-43 17.5h-182v160q0 16 -11.5 27t-27 11t-26.5 -11t-11 -27v-160h-350q-25 0 -43 -17.5t-18 -43.5v-167zM223 93.5q0 15.5 11 27t27 11.5t27 -11.5t11 -27t-11 -26.5t-27 -11t-27 11t-11 26.5z
M360 94q0 15 11 26.5t27 11.5t27 -11.5t11 -27t-11 -26.5t-27 -11t-27 11t-11 27zM596 558q-67 0 -113.5 -47t-46.5 -113q0 -16 11 -27t27 -11t27 11t11 27q0 35 24.5 59.5t59 24.5t59 -24.5t24.5 -59.5q0 -16 11.5 -27t27 -11t26.5 11t11 27q0 66 -46.5 113t-112.5 47z
M596 679q-117 0 -199.5 -82t-82.5 -199q0 -16 11.5 -27t27 -11t26.5 11t11 27q0 85 60.5 145t145.5 60t145 -60t60 -145q0 -16 11 -27t27 -11t27 11t11 27q0 117 -82.5 199t-198.5 82z" />
    <glyph glyph-name="uniE644" unicode="&#xe644;" 
d="M998 347zM928 189q2 -11 -0.5 -26t-9 -31t-15.5 -28.5t-20 -18t-19 -5.5t-18 4q-8 2 -22 4.5t-27.5 1t-27.5 -6t-24 -14.5q-22 -23 -26 -52q-3 -29 9 -55q9 -18 -3 -36q-6 -7 -17 -15q-12 -7 -26 -13.5t-29 -9.5q-15 -4 -27 -4q-8 0 -15.5 6t-9.5 14h-1q-10 28 -34 48
t-55 20t-56 -20t-34 -47q-5 -11 -14 -16t-20 -5q-13 0 -28 5q-16 4 -32 11t-28.5 16t-18.5 18q-4 6 -4.5 14.5t6.5 23.5q10 21 7.5 47.5t-22.5 49.5q-13 13 -31 17t-34 3q-19 -1 -39 -7q-13 -3 -25 2q-10 4 -18.5 16.5t-15.5 28.5t-10.5 33t-1.5 27q3 20 18 25
q27 11 48.5 36t21.5 55q0 32 -21.5 55.5t-48.5 33.5q-8 3 -13.5 13.5t-5.5 21.5t3.5 25.5t9.5 28.5q6 13 14 24q7 12 16 17q8 5 14.5 4t14.5 -4q27 -11 56.5 -7t51.5 26q11 11 16 26.5t6.5 31t-0.5 27.5q-1 13 -2 19q-2 5 -3 12t1 13q6 12 20 21.5t30 15.5q16 7 31 10t25 3
q11 0 18 -7.5t9 -15.5q10 -25 32.5 -43.5t53.5 -18.5t55.5 18t34.5 45q4 7 11.5 14.5t15.5 7.5q13 0 27.5 -3.5t29 -10t26.5 -16t20 -21.5q4 -7 2.5 -15.5t-3.5 -12.5q-12 -26 -7.5 -55t26 -50.5t53 -24t58.5 10.5q7 5 17.5 4t17.5 -8q14 -13 24.5 -38.5t13.5 -51.5
q2 -16 -5 -24.5t-14 -11.5q-28 -9 -47.5 -34t-19.5 -56t16.5 -54t43.5 -33q6 -3 11 -7q10 -8 13 -21zM510 102q41 0 79 16q37 16 64 43.5t43 64.5t16 78.5t-16 78.5t-43 64t-64 43t-79 16t-78.5 -16t-64 -43t-43.5 -64t-16 -78.5t16 -78.5t43.5 -64.5t64 -43.5t78.5 -16z
M527 105z" />
    <glyph glyph-name="uniE645" unicode="&#xe645;" horiz-adv-x="1026" 
d="M513 800q-104 0 -199 -40.5t-163.5 -109t-109 -163.5t-40.5 -199t40.5 -199t109 -163.5t163.5 -109t199 -40.5t199 40.5t163.5 109t109 163.5t40.5 199t-40.5 199t-109 163.5t-163.5 109t-199 40.5zM257.5 209q-32.5 0 -55.5 23t-23 56t23 56t55.5 23t55.5 -23t23 -56
t-23 -56t-55.5 -23zM513.5 209q-32.5 0 -55.5 23t-23 56t23 56t55.5 23t55.5 -23t23 -56t-23 -56t-55.5 -23zM769.5 209q-32.5 0 -55.5 23t-23 56t23 56t55.5 23t55.5 -23t23 -56t-23 -56t-55.5 -23z" />
    <glyph glyph-name="uniE646" unicode="&#xe646;" 
d="M929 562q-247 -197 -267 -222v191q0 16 -11 27t-27 11h-524q-15 0 -26 -11t-11 -27v-462q0 -16 11 -27t26 -11h524q16 0 27 11t11 27v189q9 -10 76 -66t129 -107t62 -50h14q5 0 9 2t5.5 3t2.5 6.5t1 7.5v12v15v430v15v12q0 3 -1 9t-2.5 7.5t-5 4t-9 3t-14.5 0.5z" />
    <glyph glyph-name="uniE647" unicode="&#xe647;" 
d="M879 576h-728q-43 0 -74 -30.5t-31 -74.5v-384q0 -44 31 -74.5t74 -30.5h728q43 0 74 30.5t31 74.5v384q0 44 -31 74.5t-74 30.5zM874 170q-9 -7 -20 -7q-13 0 -21 9q-25 26 -61.5 27.5t-63.5 -23.5q-42 -40 -100 -40q-63 0 -107 47q-3 3 -5 7q-24 24 -58 25
q-37 1 -64 -24q-42 -39 -100 -39q-63 0 -106 46q-9 9 -8.5 21t9.5 20t21 7.5t20 -8.5q25 -27 61.5 -28.5t63.5 23.5v1q44 41 104.5 39t101.5 -46q4 -4 6 -8q25 -25 60.5 -25t60.5 24q45 41 105.5 39t101.5 -46q8 -9 7.5 -20.5t-8.5 -20.5z" />
    <glyph glyph-name="uniE648" unicode="&#xe648;" horiz-adv-x="1025" 
d="M1022 423q-7 21 -29 25l-309 47l-138 296q-10 21 -33 21t-33 -21l-139 -295l-310 -46q-22 -4 -29 -25t8 -37l225 -231l-54 -326q-3 -22 15.5 -35.5t38.5 -2.5l276 153l276 -153q9 -5 18 -5h1q15 0 25.5 10.5t10.5 26.5q0 6 -2 12l-51 319l225 230q15 16 8 37zM1022 423z
" />
    <glyph glyph-name="uniE649" unicode="&#xe649;" 
d="M276 457h-162q-21 0 -36 -15t-15 -37v-220q0 -22 15 -37t36 -15h162l319 -260v844zM721 627q-12 5 -20.5 -4t-6 -21.5t15.5 -16.5q66 -24 114 -70t70 -102t22 -118.5t-22 -118t-70 -102t-114 -69.5q-13 -4 -15.5 -16.5t6 -21.5t20.5 -5q77 27 132 80.5t80.5 117t25.5 135
t-25.5 135.5t-80.5 117t-132 80zM701 163q-12 -7 -11 -20t11 -18.5t22 0.5q64 39 87.5 104.5t0 131t-87.5 104.5q-12 7 -22.5 0t-10.5 -18.5t11 -19.5q50 -31 68 -81.5t0 -101.5t-68 -81z" />
    <glyph glyph-name="uniE64A" unicode="&#xe64a;" 
d="M560 129q-20 -19 -47 -19q-28 0 -47 19q-20 20 -20 48t20 47q19 20 47 20q27 0 47 -20q20 -19 20 -47t-20 -48zM465 574q19 21 48 21q30 0 48.5 -20.5t18.5 -50.5q0 -7 -7 -46.5t-16 -96t-12 -97.5h-63q-3 41 -12 97.5t-16.5 96t-7.5 46.5q0 29 19 50zM940 137l-350 610
q-32 56 -77.5 56t-77.5 -56l-350 -610q-32 -56 -9 -95.5t87 -39.5h700q64 0 86.5 39.5t-9.5 95.5z" />
    <glyph glyph-name="uniE64B" unicode="&#xe64b;" 
d="M623 63q-13 0 -22.5 9.5t-9.5 22.5v350q0 13 9.5 22.5t22.5 9.5t22.5 -9.5t9.5 -22.5v-350q0 -13 -9.5 -22.5t-22.5 -9.5zM432 63q-13 0 -22.5 9.5t-9.5 22.5v350q0 13 9.5 22.5t22.5 9.5t22.5 -9.5t9.5 -22.5v-350q0 -13 -9.5 -22.5t-22.5 -9.5zM941 604h-159v64
q0 39 -27.5 67t-67.5 28h-319q-39 0 -67 -28t-28 -67v-64h-159q-13 0 -22.5 -9.5t-9.5 -22.5t9.5 -22.5t22.5 -9.5h827q14 0 23 9.5t9 22.5t-9 22.5t-23 9.5zM337 668q0 13 9 22.5t22 9.5h319q14 0 23 -9.5t9 -22.5v-64h-382v64zM751 -128h-446q-40 0 -68 28t-28 68v477
q0 14 9.5 23t22.5 9t22.5 -9t9.5 -23v-477q0 -14 9.5 -23t22.5 -9h446q13 0 22 9t9 23v476q0 13 9.5 22.5t22.5 9.5t22.5 -9.5t9.5 -22.5v-476q0 -40 -28 -68t-67 -28z" />
    <glyph glyph-name="uniE64C" unicode="&#xe64c;" 
d="M511 812q-104 0 -198.5 -41t-163 -109.5t-109 -163.5t-40.5 -199t41 -198.5t109.5 -163t163.5 -109t199 -40.5t198.5 41t163 109.5t109 163.5t40.5 199t-41 198.5t-109.5 163t-163.5 109t-199 40.5zM830 473l-386 -386q-8 -9 -20 -9t-20 9l-210 209q-8 8 -8 20t8 20t20 8
t20 -8l190 -189l365 366q9 9 20.5 9t20 -8.5t8.5 -20t-8 -20.5zM830 473z" />
    <glyph glyph-name="uniE64D" unicode="&#xe64d;" 
d="M511 -142v0q-5 0 -10 2v0h-1q-59 25 -127 81.5t-128.5 128t-107.5 158t-65 164.5q-34 159 55 258q79 88 180 90q103 3 204 -81q100 84 204 81q100 -2 179 -90q90 -99 55 -258q-18 -78 -65 -164.5t-107.5 -158t-128.5 -128t-127 -81.5q-5 -2 -10 -2zM312 689h-5
q-77 -2 -141 -73q-72 -80 -43 -213q21 -93 86.5 -196.5t147 -181.5t154.5 -113q72 35 153.5 113t147.5 181.5t86 196.5q29 133 -43 213q-64 71 -142 73h-4q-27 0 -56 -9t-49 -19.5t-39 -25t-25.5 -20t-10.5 -9.5v0q-4 -3 -8 -5v0v0q-5 -3 -10 -3q-6 0 -10 3h-1v0v0
q-4 2 -8 5q-3 4 -9.5 9.5t-26 19.5t-39.5 25t-49 20t-56 9zM809 331q-4 0 -7 1q-10 2 -15.5 11t-3.5 20q31 130 -16 183q-15 18 -39.5 26t-35.5 8.5t-18 -0.5q-10 -1 -18.5 5.5t-9.5 17.5t5.5 19t17.5 10q4 0 10.5 0.5t23.5 -1.5t33 -6.5t35.5 -16t34.5 -27.5
q65 -74 28 -230q-2 -9 -9.5 -14.5t-15.5 -5.5z" />
    <glyph glyph-name="uniE64E" unicode="&#xe64e;" 
d="M857 510q-1 -66 -40 -145q-42 -87 -126 -189q-68 -82 -146 -155q-26 -25 -53 -1q-161 144 -248 292q-16 28 -28 56q-6 14 -1.5 27t17 19t26 1t19.5 -18q48 -105 159 -228q35 -38 76 -76q6 -5 10 -1q157 158 228 290q31 56 37 101q11 81 -30 155q-77 142 -231 148
q-89 3 -162 -49t-101 -138q-15 -43 -15 -88q-1 -16 -10.5 -26.5t-24 -10.5t-24 10.5t-9.5 26.5q0 120 75 214t192 121q96 22 191 -14.5t153 -119.5q64 -89 66 -202zM137 -26h762q0 3 -5 11q-49 85 -100 174q-11 19 1 37q11 16 30 15q18 -1 27 -17q96 -167 136 -237
q10 -18 -0.5 -34t-32.5 -16q-71 -1 -455 -1h-415q-24 0 -35 17.5t2 39.5q12 21 130 228q15 26 40 19q17 -4 23 -19.5t-3 -31.5q-1 -3 -70 -123q-2 -3 -35 -62zM654 516q0 -56 -40 -96t-96 -40t-95.5 40t-39.5 96t40 95.5t96 39.5t95.5 -40t39.5 -95zM519 583
q-28 0 -48 -19.5t-20 -47.5q0 -29 20 -48.5t49 -19.5q27 0 46.5 20t19.5 48t-20 47.5t-47 19.5z" />
    <glyph glyph-name="uniE64F" unicode="&#xe64f;" 
d="M546 179h-205v-68h205v68zM273 179h-136v-68h136v68zM85 43q-6 0 -11.5 5t-5.5 12v324h888v-324q0 -7 -5 -12t-12 -5h-854zM939 725q7 0 12 -5t5 -12v-119h-888v119q0 7 5 12t12 5h854zM85 794q-35 0 -60 -25.5t-25 -60.5v-648q0 -35 25 -60.5t60 -25.5h854q35 0 60 25.5
t25 60.5v648q0 35 -25 60.5t-60 25.5h-854z" />
    <glyph glyph-name="uniE650" unicode="&#xe650;" 
d="M652 292l-296 -296v590z" />
    <glyph glyph-name="uniE651" unicode="&#xe651;" 
d="M87 202l425 329l424 -329v134l-424 330l-425 -330v-134zM193 214v-318h213v212h212v-212h212v318l-318 239z" />
    <glyph glyph-name="uniE652" unicode="&#xe652;" 
d="M511 813l-204 -204v82h-163v-245l-144 -144l29 -29l482 482l482 -482l29 29zM185 650h81v-82l-81 -81v163zM144 282v-489h285v285h164v-285h285v489l-367 368zM837 -166h-204v244v41h-40h-164h-40v-41v-244h-204v432l326 326l326 -326v-432z" />
    <glyph glyph-name="uniE653" unicode="&#xe653;" 
d="M960 -41q0 -44 -31.5 -75.5t-75.5 -31.5h-682q-44 0 -75.5 31.5t-31.5 75.5v639q0 35 25 60t61 25h344l88 63q8 3 16 -0.5t11 -12.5l18 -50h162q36 0 60.5 -25t24.5 -60v-64h1q35 0 60 -25t25 -60v-490zM150 641q-17 0 -30 -22t-13 -42q0 -18 12.5 -30.5t30.5 -12.5h31
h-22h4h1v1l255 106h-269zM599 637l-23 62v-21l-76 -37l-235 -107h385zM832 598q0 18 -12.5 30.5t-30.5 12.5h-146l52 -107h137v64zM875 492h-725q-23 0 -43 11v-544q0 -27 19 -45.5t45 -18.5h682q27 0 45.5 18.5t18.5 45.5v149h-85q-35 0 -60 25t-25 60t25 60t60 25h85v171
q0 18 -12.5 30.5t-29.5 12.5zM917 150v86h-85q-18 0 -30.5 -12.5t-12.5 -30.5t12.5 -30.5t30.5 -12.5h85zM832 214h42v-42h-42v42z" />
    <glyph glyph-name="uniE654" unicode="&#xe654;" 
d="M512 761q-94 0 -179 -36.5t-147 -98.5t-98.5 -147t-36.5 -179q0 -149 89 -271l35 36q-74 106 -74 235q0 112 55 206.5t149.5 149.5t206.5 55t206.5 -55t149.5 -149.5t55 -206.5t-55 -206.5t-149.5 -149.5t-206.5 -55q-128 0 -233 72l-31 -38q119 -84 264 -84
q94 0 179 36.5t147 98.5t98.5 147t36.5 179t-36.5 179t-98.5 147t-147 98.5t-179 36.5zM496 530v-214h-214v-49h214v-214h49v214h214v49h-214v214h-49zM496 530z" />
    <glyph glyph-name="uniE655" unicode="&#xe655;" 
d="M942 553.5q-12 25.5 -31 40t-43 20.5q-24 5 -49 5q-31 0 -60 -8q-28 -7 -50 -26q-17 -14 -29 -37q-3 -7 -6 -12q-2 -7 -5 -15v-3q-2 -5 -3 -13q-4 -21 -4 -46v-11q0 -4 1 -16v-2q1 -16 4 -28v-2q2 -10 6 -20q11 -31 32 -49t51 -25t68 -7q10 0 19 1q11 1 19.5 2t17.5 2
q9 2 12 3v22q0 7 -1.5 10.5t-8.5 3.5q-6 0 -19 -2h-4q-3 0 -5 -1h-1h-5h-5h-16q-32 0 -54.5 5t-36.5 18.5t-21 36.5q-2 9 -4 20q-1 5 -2 15v1v3v6q-1 6 -1 14q0 7 1 15q0 6 1 13l2 12q2 8 2 9q2 8 4 10q1 4 4 10q1 2 2 3q2 5 3 6l1 1q1 2 1 3l4 4l1 1l1 2l7 7
q15 13 35.5 18.5t42.5 5.5q47 0 67.5 -22t20.5 -69q0 -39 -9 -56q-2 -6 -6 -9q-5 -5 -10 -7h-1q-2 -1 -5 -1h-1h-1q-3 -1 -6 -1l7 112v5q-1 7 -5 9q-3 2 -6.5 3t-6.5 2q-8 1 -17 2q-8 1 -17 1q-26 0 -42.5 -8.5t-25.5 -23t-13 -32.5q-3 -19 -3 -39t4 -34q4 -13 10 -21
q6 -9 15 -12q8 -4 18 -4q15 0 24 6t17 15l2 -7q3 -8 6 -11t10 -3h17h11q3 1 4 1h2h2q4 1 11 2q9 3 14 5q18 9 28 24q10 16 14.5 36.5t4.5 45.5q0 40 -12 65.5zM819 417q-5 -2 -12 -2q-9 0 -12 6q-4 6 -4 22q0 12 1 23q0 10 3 20v2l3 6q2 4 4 6q4 6 13 6h5h4zM867 269
q-10 -1 -21 -2h-1h-2v-170h-727v402h34l330 -265l163 131q0 1 -1 3v1q-9 23 -12 54l-150 -122l-245 198h396q4 27 13 49h-577v-451q0 -21 15 -35t34 -14h49h114h151h164h148h109q43 0 42 0v225q-4 0 -7 -1q-9 -2 -19 -3z" />
    <glyph glyph-name="uniE656" unicode="&#xe656;" 
d="M924 670h-255q-75 0 -128 -51q-15 -14 -29 -37q-13 23 -29 37q-53 51 -128 51h-255q-10 0 -17.5 -7t-7.5 -16v-642q0 -10 7.5 -17t17.5 -7h229q16 0 30 -2q15 -3 28 -8l116 -43h1q4 -2 8 -2t8 2h1l111 41q17 6 33 9q18 3 34 3h225q10 0 17.5 7t7.5 17v642q0 9 -7.5 16
t-17.5 7zM367 25q-18 3 -38 3h-205v595h231q55 0 94 -37t39 -89v-513l-84 30q-17 7 -37 11zM900 28h-200q-23 0 -43 -4q-23 -4 -42 -11l-79 -29v513q0 53 39 90t94 37h231v-596zM900 28z" />
    <glyph glyph-name="uniE657" unicode="&#xe657;" 
d="M443 66l69 -130l69 130h-138zM512 832q-105 0 -194 -51.5t-141 -140.5t-52 -194t52 -194.5t141 -141t194 -51.5t194 51.5t141 141t52 194.5t-52 194t-141 140.5t-194 51.5v0zM771 216q0 11 -2.5 23t-9 31t-20 35.5t-33.5 26.5q-21 10 -36 12.5t-39 12.5l-63 28v48
q19 15 24 60q8 -2 12 6t5 19q0 1 1 8t1 12t-0.5 10.5t-2.5 8.5t-7 2q6 40 5 53q-3 31 -26.5 54t-68.5 25q-39 -2 -65.5 -26t-29.5 -53q-1 -13 4 -53q-4 1 -6 -2t-2.5 -8.5t-0.5 -10.5t1 -12t1 -8q1 -11 4.5 -19t11.5 -6q3 -20 9 -35t11 -20l5 -5v-48q-12 -8 -63 -28
q-25 -11 -40 -13t-36 -12q-18 -10 -31.5 -25.5t-20 -33.5t-9.5 -30.5t-3 -24.5q-37 42 -58 93q-27 64 -27 134.5t27 134.5q26 63 74 111t110 74q64 27 135 27t135 -27q62 -26 110 -74t74 -111q27 -64 27 -134.5t-27 -134.5q-22 -53 -60 -95v0zM771 216z" />
    <glyph glyph-name="uniE658" unicode="&#xe658;" 
d="M512 895q-103 0 -196.5 -39.5t-162 -106t-109.5 -159t-44 -194.5q3 119 59 219t151 158t206 58q113 0 208.5 -60t151 -163t55.5 -224q0 -40 28.5 -68t68 -28t67.5 28t28 68q0 104 -40.5 198.5t-109 163t-163 109t-198.5 40.5zM512 -128q102 0 195.5 39.5t162 106t110 159
t43.5 195.5q-3 -119 -59 -219.5t-150.5 -158.5t-206.5 -58t-208 60t-151.5 163t-55.5 225q0 39 -28 67t-68 28t-68 -28t-28 -67q0 -105 40.5 -199.5t109 -163t163 -109t199.5 -40.5z" />
    <glyph glyph-name="uniE659" unicode="&#xe659;" 
d="M843 181q0 -5 5.5 -5t5.5 5q0 6 -5.5 6t-5.5 -6v0zM722 56q0 -4 3 -7.5t7.5 -3.5t8 3.5t3.5 7.5v0q0 5 -3.5 8t-8 3t-7.5 -3t-3 -8v0zM559 -8q0 -7 4.5 -12t11.5 -5t11.5 5t4.5 11.5t-4.5 11.5t-11.5 5t-11.5 -5t-4.5 -11zM383 0q0 -9 6 -15.5t15.5 -6.5t15.5 6.5t6 15.5
v0q0 9 -6 15.5t-15.5 6.5t-15.5 -6.5t-6 -15.5v0zM227 80q0 -11 8 -19t19 -8t19 8t8 19q0 12 -8 20t-19 8t-19 -8t-8 -20v0zM119 217q0 -14 9.5 -23.5t23 -9.5t23 9.5t9.5 23t-9.5 23t-23 9.5t-23 -9.5t-9.5 -22.5zM78 384q0 -16 11 -27.5t27 -11.5t27 11.5t11 27.5t-11 27
t-27 11t-27 -11t-11 -27zM111 550q0 -18 13 -31t31 -13t31 13t13 31t-13 31t-31 13t-31 -13t-13 -31zM211 684q0 -21 14.5 -35.5t35 -14.5t35 14.5t14.5 35.5q0 20 -14.5 34.5t-35 14.5t-35 -14.5t-14.5 -34.5v0zM358 760q0 -22 16.5 -38t39 -16t38.5 16t16 38.5t-16 38.5
t-38.5 16t-39 -16t-16.5 -39zM524 765q0 -25 17.5 -42.5t42.5 -17.5t42.5 17.5t17.5 42.5t-17.5 42.5t-42.5 17.5t-42.5 -17.5t-17.5 -42.5v0zM675 697q0 -27 19 -46t46.5 -19t46.5 19t19 46t-19 46.5t-46.5 19.5t-46.5 -19.5t-19 -46.5zM782 569q0 -29 21 -50t50.5 -21
t50 21t20.5 50.5t-20.5 50.5t-50 21t-50.5 -21t-21 -51zM825 404q0 -32 22.5 -54.5t54 -22.5t54 22.5t22.5 54.5t-22.5 54.5t-54 22.5t-54 -22.5t-22.5 -54.5z" />
    <glyph glyph-name="uniE65A" unicode="&#xe65a;" 
d="M615 246q58 48 58 124q0 67 -47 114.5t-114 47.5t-114.5 -47.5t-47.5 -114.5q0 -75 58 -124q-106 -39 -159 -139q23 -36 54 -64q24 65 80.5 106t127.5 41t128 -41t80 -106q31 29 54 64q-53 99 -158 139zM511 282q-37 0 -63 26t-26 62.5t26 62.5t63 26t63 -26t26 -62.5
t-26 -62.5t-63 -26zM510.5 724q-91.5 0 -175 -35.5t-144 -96t-96 -144t-35.5 -175t35.5 -175t96 -144t144 -96t175 -35.5t175 35.5t144 96t96.5 144t36 175t-36 175t-96.5 144t-144 96t-175 35.5zM510.5 -105q-102.5 0 -189.5 50.5t-138 138t-51 190t51 189.5t138 138
t189.5 51t190 -51t138 -138t50.5 -189.5t-50.5 -190t-138 -138t-190 -50.5z" />
    <glyph glyph-name="uniE65B" unicode="&#xe65b;" 
d="M507.5 746q-121.5 0 -224.5 -48.5t-163 -132t-60 -182.5q0 -84 44.5 -158t121.5 -125q1 -4 2 -25q1 -19 -4 -38t-13.5 -34.5t-19.5 -29.5t-22 -24t-20 -17.5t-15 -11.5l-6 -4q50 1 83.5 4.5t75.5 14t79 32.5t72 57q34 -5 70 -5q121 0 225.5 49t166 133t61.5 182.5
t-61.5 182t-166 132t-226 48.5zM283 327q-24 0 -41 17t-17 41.5t17 41.5t41.5 17t41.5 -17t17 -42q0 -27 -16.5 -42.5t-42.5 -15.5zM512 324q-24 0 -41.5 17t-17.5 41.5t17.5 41.5t41.5 17t41.5 -17t17.5 -42q0 -27 -17 -42.5t-42 -15.5zM740 324q-25 0 -42 17t-17 41.5
t17 41.5t41.5 17t41.5 -17t17 -42q0 -27 -16.5 -42.5t-41.5 -15.5z" />
  </font>
</defs>
</svg>
